<?xml version="1.0" encoding="UTF-8" standalone="no"?>
<!DOCTYPE svg PUBLIC "-//W3C//DTD SVG 1.1//EN"
 "http://www.w3.org/Graphics/SVG/1.1/DTD/svg11.dtd">
<!-- Generated by graphviz version 5.0.0 (20220707.1540)
 -->
<!-- Title: example Pages: 1 -->
<svg width="682pt" height="501pt"
 viewBox="0.00 0.00 682.00 501.00" xmlns="http://www.w3.org/2000/svg" xmlns:xlink="http://www.w3.org/1999/xlink">
<g id="graph0" class="graph" transform="scale(1 1) rotate(0) translate(4 497)">
<title>example</title>
<polygon fill="white" stroke="transparent" points="-4,4 -4,-497 678,-497 678,4 -4,4"/>
<g id="clust1" class="cluster">
<title>cluster_table_1</title>
<polygon fill="none" stroke="black" points="8,-144 8,-449 274,-449 274,-144 8,-144"/>
<text text-anchor="middle" x="141" y="-433.8" font-family="Times,serif" font-size="14.00">table 1</text>
</g>
<g id="clust2" class="cluster">
<title>cluster_json</title>
<polygon fill="none" stroke="black" points="16,-152 16,-374 132,-374 132,-152 16,-152"/>
<text text-anchor="middle" x="74" y="-358.8" font-family="Times,serif" font-size="14.00">JSON</text>
</g>
<g id="clust3" class="cluster">
<title>cluster_table_2</title>
<polygon fill="none" stroke="black" points="282,-80 282,-227 496,-227 496,-80 282,-80"/>
<text text-anchor="middle" x="389" y="-211.8" font-family="Times,serif" font-size="14.00">table 2</text>
</g>
<g id="clust4" class="cluster">
<title>cluster_table_3</title>
<polygon fill="none" stroke="black" points="504,-8 504,-227 666,-227 666,-8 504,-8"/>
<text text-anchor="middle" x="585" y="-211.8" font-family="Times,serif" font-size="14.00">table 3</text>
</g>
<!-- db -->
<g id="node1" class="node">
<title>db</title>
<path fill="none" stroke="black" d="M416,-489.73C416,-491.53 403.9,-493 389,-493 374.1,-493 362,-491.53 362,-489.73 362,-489.73 362,-460.27 362,-460.27 362,-458.47 374.1,-457 389,-457 403.9,-457 416,-458.47 416,-460.27 416,-460.27 416,-489.73 416,-489.73"/>
<path fill="none" stroke="black" d="M416,-489.73C416,-487.92 403.9,-486.45 389,-486.45 374.1,-486.45 362,-487.92 362,-489.73"/>
<text text-anchor="middle" x="389" y="-471.3" font-family="Times,serif" font-size="14.00">db</text>
</g>
<!-- tbl1 -->
<g id="node2" class="node">
<title>tbl1</title>
<polygon fill="none" stroke="black" points="230,-418 176,-418 176,-382 230,-382 230,-418"/>
<text text-anchor="middle" x="203" y="-396.3" font-family="Times,serif" font-size="14.00">tbl1</text>
</g>
<!-- db&#45;&gt;tbl1 -->
<g id="edge1" class="edge">
<title>db&#45;&gt;tbl1</title>
<path fill="none" stroke="black" d="M361.95,-463.39C329.72,-450.73 275.71,-429.54 239.72,-415.41"/>
<polygon fill="black" stroke="black" points="240.67,-412.02 230.08,-411.63 238.11,-418.54 240.67,-412.02"/>
</g>
<!-- tbl2 -->
<g id="node3" class="node">
<title>tbl2</title>
<polygon fill="none" stroke="black" points="416,-196 362,-196 362,-160 416,-160 416,-196"/>
<text text-anchor="middle" x="389" y="-174.3" font-family="Times,serif" font-size="14.00">tbl2</text>
</g>
<!-- db&#45;&gt;tbl2 -->
<g id="edge2" class="edge">
<title>db&#45;&gt;tbl2</title>
<path fill="none" stroke="black" d="M389,-456.86C389,-407.78 389,-266.35 389,-206.39"/>
<polygon fill="black" stroke="black" points="392.5,-206.18 389,-196.18 385.5,-206.18 392.5,-206.18"/>
</g>
<!-- tbl3 -->
<g id="node4" class="node">
<title>tbl3</title>
<polygon fill="none" stroke="black" points="576,-196 522,-196 522,-160 576,-160 576,-196"/>
<text text-anchor="middle" x="549" y="-174.3" font-family="Times,serif" font-size="14.00">tbl3</text>
</g>
<!-- db&#45;&gt;tbl3 -->
<g id="edge3" class="edge">
<title>db&#45;&gt;tbl3</title>
<path fill="none" stroke="black" d="M398.67,-456.8C400.13,-454.19 401.61,-451.53 403,-449 452.14,-359.71 509.34,-253.14 535.13,-204.94"/>
<polygon fill="black" stroke="black" points="538.23,-206.57 539.86,-196.11 532.06,-203.27 538.23,-206.57"/>
</g>
<!-- col1 -->
<g id="node5" class="node">
<title>col1</title>
<polygon fill="none" stroke="black" points="122,-343 68,-343 68,-307 122,-307 122,-343"/>
<text text-anchor="middle" x="95" y="-321.3" font-family="Times,serif" font-size="14.00">col1</text>
</g>
<!-- tbl1&#45;&gt;col1 -->
<g id="edge4" class="edge">
<title>tbl1&#45;&gt;col1</title>
<path fill="none" stroke="black" d="M175.93,-394.89C160.11,-391.41 140.48,-385.14 126,-374 118.46,-368.2 112.22,-360.01 107.36,-352.03"/>
<polygon fill="black" stroke="black" points="110.39,-350.29 102.47,-343.26 104.28,-353.69 110.39,-350.29"/>
</g>
<!-- col2 -->
<g id="node6" class="node">
<title>col2</title>
<ellipse fill="none" stroke="black" cx="167" cy="-325" rx="27" ry="18"/>
<text text-anchor="middle" x="167" y="-321.3" font-family="Times,serif" font-size="14.00">col2</text>
</g>
<!-- tbl1&#45;&gt;col2 -->
<g id="edge5" class="edge">
<title>tbl1&#45;&gt;col2</title>
<path fill="none" stroke="black" d="M194.47,-381.7C190.06,-372.75 184.58,-361.66 179.69,-351.73"/>
<polygon fill="black" stroke="black" points="182.78,-350.09 175.22,-342.67 176.51,-353.19 182.78,-350.09"/>
</g>
<!-- col3 -->
<g id="node7" class="node">
<title>col3</title>
<ellipse fill="none" stroke="red" cx="239" cy="-325" rx="27" ry="18"/>
<text text-anchor="middle" x="239" y="-321.3" font-family="Times,serif" font-size="14.00">col3</text>
<text text-anchor="middle" x="205" y="-346.8" font-family="Times,serif" font-size="14.00">pk</text>
</g>
<!-- tbl1&#45;&gt;col3 -->
<g id="edge6" class="edge">
<title>tbl1&#45;&gt;col3</title>
<path fill="none" stroke="black" d="M211.53,-381.7C215.94,-372.75 221.42,-361.66 226.31,-351.73"/>
<polygon fill="black" stroke="black" points="229.49,-353.19 230.78,-342.67 223.22,-350.09 229.49,-353.19"/>
</g>
<!-- col4 -->
<g id="node8" class="node">
<title>col4</title>
<ellipse fill="none" stroke="lightgreen" cx="317" cy="-106" rx="27" ry="18"/>
<text text-anchor="middle" x="317" y="-102.3" font-family="Times,serif" font-size="14.00">col4</text>
</g>
<!-- tbl2&#45;&gt;col4 -->
<g id="edge9" class="edge">
<title>tbl2&#45;&gt;col4</title>
<path fill="none" stroke="black" d="M371.2,-159.7C361.51,-150.28 349.44,-138.53 339.14,-128.53"/>
<polygon fill="black" stroke="black" points="341.3,-125.74 331.69,-121.28 336.42,-130.76 341.3,-125.74"/>
</g>
<!-- col5 -->
<g id="node9" class="node">
<title>col5</title>
<ellipse fill="none" stroke="black" cx="389" cy="-106" rx="27" ry="18"/>
<text text-anchor="middle" x="389" y="-102.3" font-family="Times,serif" font-size="14.00">col5</text>
</g>
<!-- tbl2&#45;&gt;col5 -->
<g id="edge10" class="edge">
<title>tbl2&#45;&gt;col5</title>
<path fill="none" stroke="black" d="M389,-159.7C389,-151.98 389,-142.71 389,-134.11"/>
<polygon fill="black" stroke="black" points="392.5,-134.1 389,-124.1 385.5,-134.1 392.5,-134.1"/>
</g>
<!-- col6 -->
<g id="node10" class="node">
<title>col6</title>
<ellipse fill="none" stroke="red" cx="461" cy="-106" rx="27" ry="18"/>
<text text-anchor="middle" x="461" y="-102.3" font-family="Times,serif" font-size="14.00">col6</text>
<text text-anchor="middle" x="427" y="-127.8" font-family="Times,serif" font-size="14.00">pk</text>
</g>
<!-- tbl2&#45;&gt;col6 -->
<g id="edge11" class="edge">
<title>tbl2&#45;&gt;col6</title>
<path fill="none" stroke="black" d="M406.8,-159.7C416.49,-150.28 428.56,-138.53 438.86,-128.53"/>
<polygon fill="black" stroke="black" points="441.58,-130.76 446.31,-121.28 436.7,-125.74 441.58,-130.76"/>
</g>
<!-- col7 -->
<g id="node11" class="node">
<title>col7</title>
<ellipse fill="none" stroke="orange" cx="539" cy="-34" rx="27" ry="18"/>
<text text-anchor="middle" x="539" y="-30.3" font-family="Times,serif" font-size="14.00">col7</text>
</g>
<!-- tbl3&#45;&gt;col7 -->
<g id="edge12" class="edge">
<title>tbl3&#45;&gt;col7</title>
<path fill="none" stroke="black" d="M537.95,-159.61C532.26,-149.62 525.92,-136.58 523,-124 518.58,-104.95 519.68,-99.27 523,-80 524.07,-73.82 525.9,-67.37 527.95,-61.34"/>
<polygon fill="black" stroke="black" points="531.32,-62.32 531.51,-51.73 524.76,-59.89 531.32,-62.32"/>
</g>
<!-- col8 -->
<g id="node12" class="node">
<title>col8</title>
<ellipse fill="none" stroke="red" cx="559" cy="-106" rx="27" ry="18"/>
<text text-anchor="middle" x="559" y="-102.3" font-family="Times,serif" font-size="14.00">col8</text>
<text text-anchor="middle" x="525" y="-127.8" font-family="Times,serif" font-size="14.00">pk</text>
</g>
<!-- tbl3&#45;&gt;col8 -->
<g id="edge13" class="edge">
<title>tbl3&#45;&gt;col8</title>
<path fill="none" stroke="black" d="M551.47,-159.7C552.57,-151.98 553.9,-142.71 555.13,-134.11"/>
<polygon fill="black" stroke="black" points="558.61,-134.5 556.56,-124.1 551.68,-133.51 558.61,-134.5"/>
</g>
<!-- col9 -->
<g id="node13" class="node">
<title>col9</title>
<ellipse fill="none" stroke="lightgreen" cx="631" cy="-106" rx="27" ry="18"/>
<text text-anchor="middle" x="631" y="-102.3" font-family="Times,serif" font-size="14.00">col9</text>
</g>
<!-- tbl3&#45;&gt;col9 -->
<g id="edge14" class="edge">
<title>tbl3&#45;&gt;col9</title>
<path fill="none" stroke="black" d="M569.27,-159.7C580.75,-149.89 595.18,-137.58 607.2,-127.32"/>
<polygon fill="black" stroke="black" points="609.74,-129.75 615.07,-120.6 605.19,-124.43 609.74,-129.75"/>
</g>
<!-- key1 -->
<g id="node14" class="node">
<title>key1</title>
<polygon fill="none" stroke="red" points="64,-271 24.45,-253 64,-235 103.55,-253 64,-271"/>
<text text-anchor="middle" x="64" y="-249.3" font-family="Times,serif" font-size="14.00">key1</text>
</g>
<!-- col1&#45;&gt;key1 -->
<g id="edge7" class="edge">
<title>col1&#45;&gt;key1</title>
<path fill="none" stroke="black" d="M87.34,-306.7C83.45,-297.92 78.67,-287.13 74.46,-277.61"/>
<polygon fill="black" stroke="black" points="77.57,-276.01 70.32,-268.28 71.17,-278.84 77.57,-276.01"/>
</g>
<!-- key2 -->
<g id="node15" class="node">
<title>key2</title>
<polygon fill="none" stroke="blue" points="84,-196 44.45,-178 84,-160 123.55,-178 84,-196"/>
<text text-anchor="middle" x="84" y="-174.3" font-family="Times,serif" font-size="14.00">key2</text>
</g>
<!-- col1&#45;&gt;key2 -->
<g id="edge8" class="edge">
<title>col1&#45;&gt;key2</title>
<path fill="none" stroke="black" d="M102.94,-306.85C110.23,-288.86 119.04,-259.81 113,-235 110.09,-223.07 104.17,-210.84 98.43,-200.87"/>
<polygon fill="black" stroke="black" points="101.27,-198.81 93.08,-192.08 95.29,-202.45 101.27,-198.81"/>
</g>
<!-- col6&#45;&gt;col7 -->
<g id="edge17" class="edge">
<title>col6&#45;&gt;col7</title>
<path fill="none" stroke="orange" d="M476.41,-91.17C487.73,-81.01 503.31,-67.03 516.09,-55.56"/>
<polygon fill="orange" stroke="orange" points="518.52,-58.09 523.62,-48.8 513.84,-52.88 518.52,-58.09"/>
<text text-anchor="middle" x="493.93" y="-73.87" font-family="Times,serif" font-size="14.00">fk</text>
</g>
<!-- col8&#45;&gt;col7 -->
<g id="edge18" class="edge">
<title>col8&#45;&gt;col7</title>
<path fill="none" stroke="green" d="M554.16,-88.05C551.9,-80.14 549.15,-70.54 546.63,-61.69"/>
<polygon fill="green" stroke="green" points="549.91,-60.44 543.8,-51.79 543.18,-62.37 549.91,-60.44"/>
</g>
<!-- key1&#45;&gt;key2 -->
<g id="edge15" class="edge">
<title>key1&#45;&gt;key2</title>
<path fill="none" stroke="green" d="M68.14,-236.87C70.73,-227.44 74.12,-215.07 77.1,-204.19"/>
<polygon fill="green" stroke="green" points="80.53,-204.93 79.79,-194.36 73.77,-203.08 80.53,-204.93"/>
</g>
<!-- key2&#45;&gt;col4 -->
<g id="edge16" class="edge">
<title>key2&#45;&gt;col4</title>
<path fill="none" stroke="red" d="M106.77,-170.16C147.92,-157.8 234.9,-131.66 283.09,-117.19"/>
<polygon fill="red" stroke="red" points="284.18,-120.52 292.75,-114.29 282.16,-113.81 284.18,-120.52"/>
<text text-anchor="middle" x="193.63" y="-146.06" font-family="Times,serif" font-size="14.00">fk</text>
</g>
</g>
</svg>
