<?xml version="1.0" encoding="UTF-8" standalone="no"?>
<!DOCTYPE svg PUBLIC "-//W3C//DTD SVG 1.1//EN"
 "http://www.w3.org/Graphics/SVG/1.1/DTD/svg11.dtd">
<!-- Generated by graphviz version 5.0.0 (20220707.1540)
 -->
<!-- Title: example Pages: 1 -->
<svg width="734pt" height="432pt"
 viewBox="0.00 0.00 734.00 432.00" xmlns="http://www.w3.org/2000/svg" xmlns:xlink="http://www.w3.org/1999/xlink">
<g id="graph0" class="graph" transform="scale(1 1) rotate(0) translate(4 428)">
<title>example</title>
<polygon fill="white" stroke="transparent" points="-4,4 -4,-428 730,-428 730,4 -4,4"/>
<g id="clust1" class="cluster">
<title>cluster_table_1</title>
<polygon fill="none" stroke="black" points="8,-72 8,-380 274,-380 274,-72 8,-72"/>
<text text-anchor="middle" x="141" y="-364.8" font-family="Times,serif" font-size="14.00">table 1</text>
</g>
<g id="clust2" class="cluster">
<title>cluster_json</title>
<polygon fill="none" stroke="black" points="16,-80 16,-305 132,-305 132,-80 16,-80"/>
<text text-anchor="middle" x="74" y="-289.8" font-family="Times,serif" font-size="14.00">JSON</text>
</g>
<g id="clust3" class="cluster">
<title>cluster_table_2</title>
<polygon fill="none" stroke="black" points="282,-8 282,-155 496,-155 496,-8 282,-8"/>
<text text-anchor="middle" x="389" y="-139.8" font-family="Times,serif" font-size="14.00">table 2</text>
</g>
<g id="clust4" class="cluster">
<title>cluster_table_3</title>
<polygon fill="none" stroke="black" points="504,-80 504,-230 718,-230 718,-80 504,-80"/>
<text text-anchor="middle" x="611" y="-214.8" font-family="Times,serif" font-size="14.00">table 3</text>
</g>
<!-- db -->
<g id="node1" class="node">
<title>db</title>
<path fill="none" stroke="black" d="M416,-420.73C416,-422.53 403.9,-424 389,-424 374.1,-424 362,-422.53 362,-420.73 362,-420.73 362,-391.27 362,-391.27 362,-389.47 374.1,-388 389,-388 403.9,-388 416,-389.47 416,-391.27 416,-391.27 416,-420.73 416,-420.73"/>
<path fill="none" stroke="black" d="M416,-420.73C416,-418.92 403.9,-417.45 389,-417.45 374.1,-417.45 362,-418.92 362,-420.73"/>
<text text-anchor="middle" x="389" y="-402.3" font-family="Times,serif" font-size="14.00">db</text>
</g>
<!-- tbl1 -->
<g id="node2" class="node">
<title>tbl1</title>
<polygon fill="none" stroke="black" points="230,-349 176,-349 176,-313 230,-313 230,-349"/>
<text text-anchor="middle" x="203" y="-327.3" font-family="Times,serif" font-size="14.00">tbl1</text>
</g>
<!-- db&#45;&gt;tbl1 -->
<g id="edge1" class="edge">
<title>db&#45;&gt;tbl1</title>
<path fill="none" stroke="black" d="M361.95,-394.39C329.72,-381.73 275.71,-360.54 239.72,-346.41"/>
<polygon fill="black" stroke="black" points="240.67,-343.02 230.08,-342.63 238.11,-349.54 240.67,-343.02"/>
</g>
<!-- tbl2 -->
<g id="node3" class="node">
<title>tbl2</title>
<polygon fill="none" stroke="black" points="416,-124 362,-124 362,-88 416,-88 416,-124"/>
<text text-anchor="middle" x="389" y="-102.3" font-family="Times,serif" font-size="14.00">tbl2</text>
</g>
<!-- db&#45;&gt;tbl2 -->
<g id="edge2" class="edge">
<title>db&#45;&gt;tbl2</title>
<path fill="none" stroke="black" d="M389,-387.69C389,-338.11 389,-195.24 389,-134.67"/>
<polygon fill="black" stroke="black" points="392.5,-134.36 389,-124.36 385.5,-134.36 392.5,-134.36"/>
</g>
<!-- tbl3 -->
<g id="node4" class="node">
<title>tbl3</title>
<polygon fill="none" stroke="black" points="602,-199 548,-199 548,-163 602,-163 602,-199"/>
<text text-anchor="middle" x="575" y="-177.3" font-family="Times,serif" font-size="14.00">tbl3</text>
</g>
<!-- db&#45;&gt;tbl3 -->
<g id="edge3" class="edge">
<title>db&#45;&gt;tbl3</title>
<path fill="none" stroke="black" d="M403.29,-387.87C435.88,-348.79 515.85,-252.91 554.04,-207.13"/>
<polygon fill="black" stroke="black" points="556.95,-209.11 560.67,-199.19 551.57,-204.62 556.95,-209.11"/>
</g>
<!-- col1 -->
<g id="node5" class="node">
<title>col1</title>
<polygon fill="none" stroke="black" points="122,-274 68,-274 68,-238 122,-238 122,-274"/>
<text text-anchor="middle" x="95" y="-252.3" font-family="Times,serif" font-size="14.00">col1</text>
</g>
<!-- tbl1&#45;&gt;col1 -->
<g id="edge4" class="edge">
<title>tbl1&#45;&gt;col1</title>
<path fill="none" stroke="black" d="M175.93,-325.89C160.11,-322.41 140.48,-316.14 126,-305 118.46,-299.2 112.22,-291.01 107.36,-283.03"/>
<polygon fill="black" stroke="black" points="110.39,-281.29 102.47,-274.26 104.28,-284.69 110.39,-281.29"/>
</g>
<!-- col2 -->
<g id="node6" class="node">
<title>col2</title>
<ellipse fill="none" stroke="black" cx="167" cy="-256" rx="27" ry="18"/>
<text text-anchor="middle" x="167" y="-252.3" font-family="Times,serif" font-size="14.00">col2</text>
</g>
<!-- tbl1&#45;&gt;col2 -->
<g id="edge5" class="edge">
<title>tbl1&#45;&gt;col2</title>
<path fill="none" stroke="black" d="M194.47,-312.7C190.06,-303.75 184.58,-292.66 179.69,-282.73"/>
<polygon fill="black" stroke="black" points="182.78,-281.09 175.22,-273.67 176.51,-284.19 182.78,-281.09"/>
</g>
<!-- col3 -->
<g id="node7" class="node">
<title>col3</title>
<ellipse fill="none" stroke="red" cx="239" cy="-256" rx="27" ry="18"/>
<text text-anchor="middle" x="239" y="-252.3" font-family="Times,serif" font-size="14.00">col3</text>
<text text-anchor="middle" x="205" y="-277.8" font-family="Times,serif" font-size="14.00">pk</text>
</g>
<!-- tbl1&#45;&gt;col3 -->
<g id="edge6" class="edge">
<title>tbl1&#45;&gt;col3</title>
<path fill="none" stroke="black" d="M211.53,-312.7C215.94,-303.75 221.42,-292.66 226.31,-282.73"/>
<polygon fill="black" stroke="black" points="229.49,-284.19 230.78,-273.67 223.22,-281.09 229.49,-284.19"/>
</g>
<!-- col4 -->
<g id="node8" class="node">
<title>col4</title>
<ellipse fill="none" stroke="lightgreen" cx="317" cy="-34" rx="27" ry="18"/>
<text text-anchor="middle" x="317" y="-30.3" font-family="Times,serif" font-size="14.00">col4</text>
</g>
<!-- tbl2&#45;&gt;col4 -->
<g id="edge9" class="edge">
<title>tbl2&#45;&gt;col4</title>
<path fill="none" stroke="black" d="M371.2,-87.7C361.51,-78.28 349.44,-66.53 339.14,-56.53"/>
<polygon fill="black" stroke="black" points="341.3,-53.74 331.69,-49.28 336.42,-58.76 341.3,-53.74"/>
</g>
<!-- col5 -->
<g id="node9" class="node">
<title>col5</title>
<ellipse fill="none" stroke="black" cx="389" cy="-34" rx="27" ry="18"/>
<text text-anchor="middle" x="389" y="-30.3" font-family="Times,serif" font-size="14.00">col5</text>
</g>
<!-- tbl2&#45;&gt;col5 -->
<g id="edge10" class="edge">
<title>tbl2&#45;&gt;col5</title>
<path fill="none" stroke="black" d="M389,-87.7C389,-79.98 389,-70.71 389,-62.11"/>
<polygon fill="black" stroke="black" points="392.5,-62.1 389,-52.1 385.5,-62.1 392.5,-62.1"/>
</g>
<!-- col6 -->
<g id="node10" class="node">
<title>col6</title>
<ellipse fill="none" stroke="red" cx="461" cy="-34" rx="27" ry="18"/>
<text text-anchor="middle" x="461" y="-30.3" font-family="Times,serif" font-size="14.00">col6</text>
<text text-anchor="middle" x="427" y="-55.8" font-family="Times,serif" font-size="14.00">pk</text>
</g>
<!-- tbl2&#45;&gt;col6 -->
<g id="edge11" class="edge">
<title>tbl2&#45;&gt;col6</title>
<path fill="none" stroke="black" d="M406.8,-87.7C416.49,-78.28 428.56,-66.53 438.86,-56.53"/>
<polygon fill="black" stroke="black" points="441.58,-58.76 446.31,-49.28 436.7,-53.74 441.58,-58.76"/>
</g>
<!-- col7 -->
<g id="node11" class="node">
<title>col7</title>
<ellipse fill="none" stroke="orange" cx="539" cy="-106" rx="27" ry="18"/>
<text text-anchor="middle" x="539" y="-102.3" font-family="Times,serif" font-size="14.00">col7</text>
</g>
<!-- tbl3&#45;&gt;col7 -->
<g id="edge12" class="edge">
<title>tbl3&#45;&gt;col7</title>
<path fill="none" stroke="black" d="M566.47,-162.7C562.06,-153.75 556.58,-142.66 551.69,-132.73"/>
<polygon fill="black" stroke="black" points="554.78,-131.09 547.22,-123.67 548.51,-134.19 554.78,-131.09"/>
</g>
<!-- col8 -->
<g id="node12" class="node">
<title>col8</title>
<ellipse fill="none" stroke="red" cx="611" cy="-106" rx="27" ry="18"/>
<text text-anchor="middle" x="611" y="-102.3" font-family="Times,serif" font-size="14.00">col8</text>
<text text-anchor="middle" x="577" y="-127.8" font-family="Times,serif" font-size="14.00">pk</text>
</g>
<!-- tbl3&#45;&gt;col8 -->
<g id="edge13" class="edge">
<title>tbl3&#45;&gt;col8</title>
<path fill="none" stroke="black" d="M583.53,-162.7C587.94,-153.75 593.42,-142.66 598.31,-132.73"/>
<polygon fill="black" stroke="black" points="601.49,-134.19 602.78,-123.67 595.22,-131.09 601.49,-134.19"/>
</g>
<!-- col9 -->
<g id="node13" class="node">
<title>col9</title>
<ellipse fill="none" stroke="lightgreen" cx="683" cy="-106" rx="27" ry="18"/>
<text text-anchor="middle" x="683" y="-102.3" font-family="Times,serif" font-size="14.00">col9</text>
</g>
<!-- tbl3&#45;&gt;col9 -->
<g id="edge14" class="edge">
<title>tbl3&#45;&gt;col9</title>
<path fill="none" stroke="black" d="M602.12,-174.63C616.44,-170.84 633.75,-164.68 647,-155 655.49,-148.8 662.88,-140.03 668.72,-131.67"/>
<polygon fill="black" stroke="black" points="671.69,-133.53 674.23,-123.25 665.83,-129.7 671.69,-133.53"/>
</g>
<!-- key1 -->
<g id="node14" class="node">
<title>key1</title>
<polygon fill="none" stroke="red" points="64,-199 24.45,-181 64,-163 103.55,-181 64,-199"/>
<text text-anchor="middle" x="64" y="-177.3" font-family="Times,serif" font-size="14.00">key1</text>
</g>
<!-- col1&#45;&gt;key1 -->
<g id="edge7" class="edge">
<title>col1&#45;&gt;key1</title>
<path fill="none" stroke="black" d="M87.65,-237.7C83.64,-228.24 78.6,-216.38 74.21,-206.04"/>
<polygon fill="black" stroke="black" points="77.38,-204.55 70.25,-196.71 70.93,-207.28 77.38,-204.55"/>
</g>
<!-- key2 -->
<g id="node15" class="node">
<title>key2</title>
<polygon fill="none" stroke="blue" points="84,-124 44.45,-106 84,-88 123.55,-106 84,-124"/>
<text text-anchor="middle" x="84" y="-102.3" font-family="Times,serif" font-size="14.00">key2</text>
</g>
<!-- col1&#45;&gt;key2 -->
<g id="edge8" class="edge">
<title>col1&#45;&gt;key2</title>
<path fill="none" stroke="black" d="M109.45,-237.72C110.9,-235.25 112.15,-232.65 113,-230 122.14,-201.66 120.05,-191.93 113,-163 110.09,-151.07 104.17,-138.84 98.43,-128.87"/>
<polygon fill="black" stroke="black" points="101.27,-126.81 93.08,-120.08 95.29,-130.45 101.27,-126.81"/>
</g>
<!-- col6&#45;&gt;col7 -->
<g id="edge17" class="edge">
<title>col6&#45;&gt;col7</title>
<path fill="none" stroke="orange" d="M479.91,-47.24C492.12,-56.86 507.73,-70.55 519.94,-82.18"/>
<polygon fill="orange" stroke="orange" points="517.81,-84.99 527.41,-89.46 522.7,-79.98 517.81,-84.99"/>
<text text-anchor="middle" x="498.16" y="-71.49" font-family="Times,serif" font-size="14.00">fk</text>
</g>
<!-- col7&#45;&gt;col6 -->
<g id="edge18" class="edge">
<title>col7&#45;&gt;col6</title>
<path fill="none" stroke="green" d="M520.15,-92.81C507.92,-83.17 492.25,-69.44 480.01,-57.78"/>
<polygon fill="green" stroke="green" points="482.14,-54.96 472.54,-50.48 477.25,-59.97 482.14,-54.96"/>
</g>
<!-- key1&#45;&gt;key2 -->
<g id="edge15" class="edge">
<title>key1&#45;&gt;key2</title>
<path fill="none" stroke="green" d="M68.14,-164.87C70.73,-155.44 74.12,-143.07 77.1,-132.19"/>
<polygon fill="green" stroke="green" points="80.53,-132.93 79.79,-122.36 73.77,-131.08 80.53,-132.93"/>
</g>
<!-- key2&#45;&gt;col4 -->
<g id="edge16" class="edge">
<title>key2&#45;&gt;col4</title>
<path fill="none" stroke="red" d="M106.77,-98.16C147.92,-85.8 234.9,-59.66 283.09,-45.19"/>
<polygon fill="red" stroke="red" points="284.18,-48.52 292.75,-42.29 282.16,-41.81 284.18,-48.52"/>
<text text-anchor="middle" x="193.63" y="-74.06" font-family="Times,serif" font-size="14.00">fk</text>
</g>
</g>
</svg>
