<?xml version="1.0" encoding="UTF-8" standalone="no"?>
<!DOCTYPE svg PUBLIC "-//W3C//DTD SVG 1.1//EN"
 "http://www.w3.org/Graphics/SVG/1.1/DTD/svg11.dtd">
<!-- Generated by graphviz version 7.1.0 (20230121.1956)
 -->
<!-- Title: example Pages: 1 -->
<svg width="682pt" height="501pt"
 viewBox="0.00 0.00 682.00 501.00" xmlns="http://www.w3.org/2000/svg" xmlns:xlink="http://www.w3.org/1999/xlink">
<g id="graph0" class="graph" transform="scale(1 1) rotate(0) translate(4 497)">
<title>example</title>
<polygon fill="white" stroke="none" points="-4,4 -4,-497 678,-497 678,4 -4,4"/>
<g id="clust1" class="cluster">
<title>cluster_table_1</title>
<polygon fill="none" stroke="black" points="8,-144 8,-449 274,-449 274,-144 8,-144"/>
<text text-anchor="middle" x="141" y="-433.8" font-family="Times,serif" font-size="14.00">table 1</text>
</g>
<g id="clust2" class="cluster">
<title>cluster_json</title>
<polygon fill="none" stroke="black" points="16,-152 16,-374 132,-374 132,-152 16,-152"/>
<text text-anchor="middle" x="74" y="-358.8" font-family="Times,serif" font-size="14.00">JSON</text>
</g>
<g id="clust3" class="cluster">
<title>cluster_table_2</title>
<polygon fill="none" stroke="black" points="282,-80 282,-227 496,-227 496,-80 282,-80"/>
<text text-anchor="middle" x="389" y="-211.8" font-family="Times,serif" font-size="14.00">table 2</text>
</g>
<g id="clust4" class="cluster">
<title>cluster_table_3</title>
<polygon fill="none" stroke="black" points="504,-8 504,-227 666,-227 666,-8 504,-8"/>
<text text-anchor="middle" x="585" y="-211.8" font-family="Times,serif" font-size="14.00">table 3</text>
</g>
<!-- db -->
<g id="node1" class="node">
<title>db</title>
<path fill="none" stroke="black" d="M416,-489.73C416,-491.53 403.9,-493 389,-493 374.1,-493 362,-491.53 362,-489.73 362,-489.73 362,-460.27 362,-460.27 362,-458.47 374.1,-457 389,-457 403.9,-457 416,-458.47 416,-460.27 416,-460.27 416,-489.73 416,-489.73"/>
<path fill="none" stroke="black" d="M416,-489.73C416,-487.92 403.9,-486.45 389,-486.45 374.1,-486.45 362,-487.92 362,-489.73"/>
<text text-anchor="middle" x="389" y="-471.3" font-family="Times,serif" font-size="14.00">db</text>
</g>
<!-- tbl1 -->
<g id="node2" class="node">
<title>tbl1</title>
<polygon fill="none" stroke="black" points="230,-418 176,-418 176,-382 230,-382 230,-418"/>
<text text-anchor="middle" x="203" y="-396.3" font-family="Times,serif" font-size="14.00">tbl1</text>
</g>
<!-- db&#45;&gt;tbl1 -->
<g id="edge1" class="edge">
<title>db&#45;&gt;tbl1</title>
<path fill="none" stroke="black" d="M361.56,-463.23C329.59,-450.68 276.62,-429.89 240.78,-415.83"/>
<polygon fill="black" stroke="black" points="242.25,-412.65 231.66,-412.25 239.69,-419.16 242.25,-412.65"/>
</g>
<!-- tbl2 -->
<g id="node3" class="node">
<title>tbl2</title>
<polygon fill="none" stroke="black" points="416,-196 362,-196 362,-160 416,-160 416,-196"/>
<text text-anchor="middle" x="389" y="-174.3" font-family="Times,serif" font-size="14.00">tbl2</text>
</g>
<!-- db&#45;&gt;tbl2 -->
<g id="edge2" class="edge">
<title>db&#45;&gt;tbl2</title>
<path fill="none" stroke="black" d="M389,-456.86C389,-408.09 389,-268.11 389,-207.52"/>
<polygon fill="black" stroke="black" points="392.5,-207.7 389,-197.7 385.5,-207.7 392.5,-207.7"/>
</g>
<!-- tbl3 -->
<g id="node4" class="node">
<title>tbl3</title>
<polygon fill="none" stroke="black" points="576,-196 522,-196 522,-160 576,-160 576,-196"/>
<text text-anchor="middle" x="549" y="-174.3" font-family="Times,serif" font-size="14.00">tbl3</text>
</g>
<!-- db&#45;&gt;tbl3 -->
<g id="edge3" class="edge">
<title>db&#45;&gt;tbl3</title>
<path fill="none" stroke="black" d="M398.82,-456.53C400.23,-454.01 401.66,-451.44 403,-449 451.61,-360.67 508.11,-255.43 534.29,-206.52"/>
<polygon fill="black" stroke="black" points="537.35,-208.22 538.98,-197.76 531.18,-204.92 537.35,-208.22"/>
</g>
<!-- col1 -->
<g id="node5" class="node">
<title>col1</title>
<polygon fill="none" stroke="black" points="122,-343 68,-343 68,-307 122,-307 122,-343"/>
<text text-anchor="middle" x="95" y="-321.3" font-family="Times,serif" font-size="14.00">col1</text>
</g>
<!-- tbl1&#45;&gt;col1 -->
<g id="edge4" class="edge">
<title>tbl1&#45;&gt;col1</title>
<path fill="none" stroke="black" d="M175.56,-394.81C159.81,-391.32 140.37,-385.05 126,-374 118.78,-368.45 112.76,-360.71 107.99,-353.06"/>
<polygon fill="black" stroke="black" points="111.17,-351.57 103.21,-344.57 105.07,-355 111.17,-351.57"/>
</g>
<!-- col2 -->
<g id="node6" class="node">
<title>col2</title>
<ellipse fill="none" stroke="black" cx="167" cy="-325" rx="27" ry="18"/>
<text text-anchor="middle" x="167" y="-321.3" font-family="Times,serif" font-size="14.00">col2</text>
</g>
<!-- tbl1&#45;&gt;col2 -->
<g id="edge5" class="edge">
<title>tbl1&#45;&gt;col2</title>
<path fill="none" stroke="black" d="M194.47,-381.7C190.13,-372.91 184.77,-362.03 179.94,-352.24"/>
<polygon fill="black" stroke="black" points="183.21,-350.95 175.65,-343.53 176.93,-354.05 183.21,-350.95"/>
</g>
<!-- col3 -->
<g id="node7" class="node">
<title>col3</title>
<ellipse fill="none" stroke="red" cx="239" cy="-325" rx="27" ry="18"/>
<text text-anchor="middle" x="239" y="-321.3" font-family="Times,serif" font-size="14.00">col3</text>
<text text-anchor="middle" x="205" y="-346.8" font-family="Times,serif" font-size="14.00">pk</text>
</g>
<!-- tbl1&#45;&gt;col3 -->
<g id="edge6" class="edge">
<title>tbl1&#45;&gt;col3</title>
<path fill="none" stroke="black" d="M211.53,-381.7C215.87,-372.91 221.23,-362.03 226.06,-352.24"/>
<polygon fill="black" stroke="black" points="229.07,-354.05 230.35,-343.53 222.79,-350.95 229.07,-354.05"/>
</g>
<!-- col4 -->
<g id="node8" class="node">
<title>col4</title>
<ellipse fill="none" stroke="lightgreen" cx="317" cy="-106" rx="27" ry="18"/>
<text text-anchor="middle" x="317" y="-102.3" font-family="Times,serif" font-size="14.00">col4</text>
</g>
<!-- tbl2&#45;&gt;col4 -->
<g id="edge9" class="edge">
<title>tbl2&#45;&gt;col4</title>
<path fill="none" stroke="black" d="M371.2,-159.7C361.7,-150.46 349.91,-138.99 339.75,-129.12"/>
<polygon fill="black" stroke="black" points="342.38,-126.8 332.77,-122.33 337.5,-131.81 342.38,-126.8"/>
</g>
<!-- col5 -->
<g id="node9" class="node">
<title>col5</title>
<ellipse fill="none" stroke="black" cx="389" cy="-106" rx="27" ry="18"/>
<text text-anchor="middle" x="389" y="-102.3" font-family="Times,serif" font-size="14.00">col5</text>
</g>
<!-- tbl2&#45;&gt;col5 -->
<g id="edge10" class="edge">
<title>tbl2&#45;&gt;col5</title>
<path fill="none" stroke="black" d="M389,-159.7C389,-152.41 389,-143.73 389,-135.54"/>
<polygon fill="black" stroke="black" points="392.5,-135.62 389,-125.62 385.5,-135.62 392.5,-135.62"/>
</g>
<!-- col6 -->
<g id="node10" class="node">
<title>col6</title>
<ellipse fill="none" stroke="red" cx="461" cy="-106" rx="27" ry="18"/>
<text text-anchor="middle" x="461" y="-102.3" font-family="Times,serif" font-size="14.00">col6</text>
<text text-anchor="middle" x="427" y="-127.8" font-family="Times,serif" font-size="14.00">pk</text>
</g>
<!-- tbl2&#45;&gt;col6 -->
<g id="edge11" class="edge">
<title>tbl2&#45;&gt;col6</title>
<path fill="none" stroke="black" d="M406.8,-159.7C416.3,-150.46 428.09,-138.99 438.25,-129.12"/>
<polygon fill="black" stroke="black" points="440.5,-131.81 445.23,-122.33 435.62,-126.8 440.5,-131.81"/>
</g>
<!-- col7 -->
<g id="node11" class="node">
<title>col7</title>
<ellipse fill="none" stroke="orange" cx="539" cy="-34" rx="27" ry="18"/>
<text text-anchor="middle" x="539" y="-30.3" font-family="Times,serif" font-size="14.00">col7</text>
</g>
<!-- tbl3&#45;&gt;col7 -->
<g id="edge12" class="edge">
<title>tbl3&#45;&gt;col7</title>
<path fill="none" stroke="black" d="M537.95,-159.61C532.26,-149.62 525.92,-136.58 523,-124 518.58,-104.95 519.68,-99.27 523,-80 524.01,-74.12 525.72,-68 527.65,-62.23"/>
<polygon fill="black" stroke="black" points="530.82,-63.74 530.99,-53.15 524.25,-61.32 530.82,-63.74"/>
</g>
<!-- col8 -->
<g id="node12" class="node">
<title>col8</title>
<ellipse fill="none" stroke="red" cx="559" cy="-106" rx="27" ry="18"/>
<text text-anchor="middle" x="559" y="-102.3" font-family="Times,serif" font-size="14.00">col8</text>
<text text-anchor="middle" x="525" y="-127.8" font-family="Times,serif" font-size="14.00">pk</text>
</g>
<!-- tbl3&#45;&gt;col8 -->
<g id="edge13" class="edge">
<title>tbl3&#45;&gt;col8</title>
<path fill="none" stroke="black" d="M551.47,-159.7C552.53,-152.32 553.78,-143.52 554.96,-135.25"/>
<polygon fill="black" stroke="black" points="558.39,-136 556.34,-125.6 551.46,-135.01 558.39,-136"/>
</g>
<!-- col9 -->
<g id="node13" class="node">
<title>col9</title>
<ellipse fill="none" stroke="lightgreen" cx="631" cy="-106" rx="27" ry="18"/>
<text text-anchor="middle" x="631" y="-102.3" font-family="Times,serif" font-size="14.00">col9</text>
</g>
<!-- tbl3&#45;&gt;col9 -->
<g id="edge14" class="edge">
<title>tbl3&#45;&gt;col9</title>
<path fill="none" stroke="black" d="M569.27,-159.7C580.46,-150.15 594.44,-138.21 606.26,-128.12"/>
<polygon fill="black" stroke="black" points="608.32,-130.96 613.65,-121.81 603.78,-125.64 608.32,-130.96"/>
</g>
<!-- key1 -->
<g id="node14" class="node">
<title>key1</title>
<polygon fill="none" stroke="red" points="64,-271 24.45,-253 64,-235 103.55,-253 64,-271"/>
<text text-anchor="middle" x="64" y="-249.3" font-family="Times,serif" font-size="14.00">key1</text>
</g>
<!-- col1&#45;&gt;key1 -->
<g id="edge7" class="edge">
<title>col1&#45;&gt;key1</title>
<path fill="none" stroke="black" d="M87.34,-306.7C83.57,-298.2 78.97,-287.81 74.86,-278.52"/>
<polygon fill="black" stroke="black" points="78.19,-277.39 70.94,-269.66 71.79,-280.22 78.19,-277.39"/>
</g>
<!-- key2 -->
<g id="node15" class="node">
<title>key2</title>
<polygon fill="none" stroke="blue" points="84,-196 44.45,-178 84,-160 123.55,-178 84,-196"/>
<text text-anchor="middle" x="84" y="-174.3" font-family="Times,serif" font-size="14.00">key2</text>
</g>
<!-- col1&#45;&gt;key2 -->
<g id="edge8" class="edge">
<title>col1&#45;&gt;key2</title>
<path fill="none" stroke="black" d="M103.08,-306.52C110.34,-288.5 119.01,-259.66 113,-235 110.18,-223.44 104.53,-211.6 98.96,-201.8"/>
<polygon fill="black" stroke="black" points="102.03,-200.13 93.87,-193.38 96.05,-203.75 102.03,-200.13"/>
</g>
<!-- col6&#45;&gt;col7 -->
<g id="edge17" class="edge">
<title>col6&#45;&gt;col7</title>
<path fill="none" stroke="orange" d="M476.41,-91.17C487.45,-81.26 502.53,-67.73 515.12,-56.43"/>
<polygon fill="orange" stroke="orange" points="517.12,-59.34 522.23,-50.05 512.45,-54.13 517.12,-59.34"/>
<text text-anchor="middle" x="493.93" y="-73.86" font-family="Times,serif" font-size="14.00">fk</text>
</g>
<!-- col8&#45;&gt;col7 -->
<g id="edge18" class="edge">
<title>col8&#45;&gt;col7</title>
<path fill="none" stroke="green" d="M554.16,-88.05C552,-80.49 549.39,-71.37 546.96,-62.85"/>
<polygon fill="green" stroke="green" points="550.33,-61.9 544.21,-53.24 543.59,-63.82 550.33,-61.9"/>
</g>
<!-- key1&#45;&gt;key2 -->
<g id="edge15" class="edge">
<title>key1&#45;&gt;key2</title>
<path fill="none" stroke="green" d="M68.24,-236.52C70.71,-227.52 73.88,-215.93 76.74,-205.52"/>
<polygon fill="green" stroke="green" points="80.1,-206.49 79.36,-195.92 73.35,-204.64 80.1,-206.49"/>
</g>
<!-- key2&#45;&gt;col4 -->
<g id="edge16" class="edge">
<title>key2&#45;&gt;col4</title>
<path fill="none" stroke="red" d="M107.19,-170.03C148.11,-157.74 233.36,-132.13 281.65,-117.62"/>
<polygon fill="red" stroke="red" points="282.49,-121.02 291.06,-114.79 280.47,-114.32 282.49,-121.02"/>
<text text-anchor="middle" x="194.04" y="-145.94" font-family="Times,serif" font-size="14.00">fk</text>
</g>
</g>
</svg>
