<?xml version="1.0" encoding="UTF-8" standalone="no"?>
<!DOCTYPE svg PUBLIC "-//W3C//DTD SVG 1.1//EN"
 "http://www.w3.org/Graphics/SVG/1.1/DTD/svg11.dtd">
<!-- Generated by graphviz version 5.0.0 (20220707.1540)
 -->
<!-- Title: example Pages: 1 -->
<svg width="593pt" height="404pt"
 viewBox="0.00 0.00 593.00 404.00" xmlns="http://www.w3.org/2000/svg" xmlns:xlink="http://www.w3.org/1999/xlink">
<g id="graph0" class="graph" transform="scale(1 1) rotate(0) translate(4 400)">
<title>example</title>
<polygon fill="white" stroke="transparent" points="-4,4 -4,-400 589,-400 589,4 -4,4"/>
<!-- db -->
<g id="node1" class="node">
<title>db</title>
<path fill="none" stroke="black" d="M331,-392.73C331,-394.53 318.9,-396 304,-396 289.1,-396 277,-394.53 277,-392.73 277,-392.73 277,-363.27 277,-363.27 277,-361.47 289.1,-360 304,-360 318.9,-360 331,-361.47 331,-363.27 331,-363.27 331,-392.73 331,-392.73"/>
<path fill="none" stroke="black" d="M331,-392.73C331,-390.92 318.9,-389.45 304,-389.45 289.1,-389.45 277,-390.92 277,-392.73"/>
<text text-anchor="middle" x="304" y="-374.3" font-family="Times,serif" font-size="14.00">db</text>
</g>
<!-- tbl1 -->
<g id="node2" class="node">
<title>tbl1</title>
<polygon fill="none" stroke="black" points="185,-324 131,-324 131,-288 185,-288 185,-324"/>
<text text-anchor="middle" x="158" y="-302.3" font-family="Times,serif" font-size="14.00">tbl1</text>
</g>
<!-- db&#45;&gt;tbl1 -->
<g id="edge1" class="edge">
<title>db&#45;&gt;tbl1</title>
<path fill="none" stroke="black" d="M276.88,-364C253.67,-352.87 220.06,-336.75 194.49,-324.5"/>
<polygon fill="black" stroke="black" points="196,-321.34 185.47,-320.17 192.97,-327.65 196,-321.34"/>
</g>
<!-- tbl2 -->
<g id="node3" class="node">
<title>tbl2</title>
<polygon fill="none" stroke="black" points="331,-324 277,-324 277,-288 331,-288 331,-324"/>
<text text-anchor="middle" x="304" y="-302.3" font-family="Times,serif" font-size="14.00">tbl2</text>
</g>
<!-- db&#45;&gt;tbl2 -->
<g id="edge2" class="edge">
<title>db&#45;&gt;tbl2</title>
<path fill="none" stroke="black" d="M304,-359.7C304,-351.98 304,-342.71 304,-334.11"/>
<polygon fill="black" stroke="black" points="307.5,-334.1 304,-324.1 300.5,-334.1 307.5,-334.1"/>
</g>
<!-- tbl3 -->
<g id="node4" class="node">
<title>tbl3</title>
<polygon fill="none" stroke="black" points="485,-324 431,-324 431,-288 485,-288 485,-324"/>
<text text-anchor="middle" x="458" y="-302.3" font-family="Times,serif" font-size="14.00">tbl3</text>
</g>
<!-- db&#45;&gt;tbl3 -->
<g id="edge3" class="edge">
<title>db&#45;&gt;tbl3</title>
<path fill="none" stroke="black" d="M331.18,-364.65C356.28,-353.24 393.77,-336.2 421.48,-323.6"/>
<polygon fill="black" stroke="black" points="423.18,-326.67 430.84,-319.35 420.28,-320.3 423.18,-326.67"/>
</g>
<!-- col1 -->
<g id="node5" class="node">
<title>col1</title>
<polygon fill="none" stroke="black" points="77,-252 23,-252 23,-216 77,-216 77,-252"/>
<text text-anchor="middle" x="50" y="-230.3" font-family="Times,serif" font-size="14.00">col1</text>
<text text-anchor="middle" x="11.5" y="-255.8" font-family="Times,serif" font-size="14.00">json</text>
</g>
<!-- tbl1&#45;&gt;col1 -->
<g id="edge4" class="edge">
<title>tbl1&#45;&gt;col1</title>
<path fill="none" stroke="black" d="M131.58,-287.88C117.59,-278.81 100.22,-267.55 85.11,-257.76"/>
<polygon fill="black" stroke="black" points="86.82,-254.69 76.52,-252.19 83.01,-260.57 86.82,-254.69"/>
</g>
<!-- col2 -->
<g id="node6" class="node">
<title>col2</title>
<ellipse fill="none" stroke="black" cx="122" cy="-234" rx="27" ry="18"/>
<text text-anchor="middle" x="122" y="-230.3" font-family="Times,serif" font-size="14.00">col2</text>
</g>
<!-- tbl1&#45;&gt;col2 -->
<g id="edge5" class="edge">
<title>tbl1&#45;&gt;col2</title>
<path fill="none" stroke="black" d="M149.1,-287.7C144.84,-279.4 139.65,-269.31 134.95,-260.19"/>
<polygon fill="black" stroke="black" points="137.99,-258.44 130.3,-251.14 131.76,-261.64 137.99,-258.44"/>
</g>
<!-- col3 -->
<g id="node7" class="node">
<title>col3</title>
<ellipse fill="none" stroke="red" cx="194" cy="-234" rx="27" ry="18"/>
<text text-anchor="middle" x="194" y="-230.3" font-family="Times,serif" font-size="14.00">col3</text>
<text text-anchor="middle" x="160" y="-255.8" font-family="Times,serif" font-size="14.00">pk</text>
</g>
<!-- tbl1&#45;&gt;col3 -->
<g id="edge6" class="edge">
<title>tbl1&#45;&gt;col3</title>
<path fill="none" stroke="black" d="M166.9,-287.7C171.16,-279.4 176.35,-269.31 181.05,-260.19"/>
<polygon fill="black" stroke="black" points="184.24,-261.64 185.7,-251.14 178.01,-258.44 184.24,-261.64"/>
</g>
<!-- col4 -->
<g id="node8" class="node">
<title>col4</title>
<ellipse fill="none" stroke="lightgreen" cx="183" cy="-18" rx="27" ry="18"/>
<text text-anchor="middle" x="183" y="-14.3" font-family="Times,serif" font-size="14.00">col4</text>
</g>
<!-- tbl2&#45;&gt;col4 -->
<g id="edge9" class="edge">
<title>tbl2&#45;&gt;col4</title>
<path fill="none" stroke="black" d="M290.52,-287.53C283.21,-277.51 274.39,-264.48 268,-252 231.48,-180.68 203.14,-89.94 190.39,-45.69"/>
<polygon fill="black" stroke="black" points="193.73,-44.64 187.62,-35.98 186.99,-46.55 193.73,-44.64"/>
</g>
<!-- col5 -->
<g id="node9" class="node">
<title>col5</title>
<ellipse fill="none" stroke="black" cx="304" cy="-234" rx="27" ry="18"/>
<text text-anchor="middle" x="304" y="-230.3" font-family="Times,serif" font-size="14.00">col5</text>
</g>
<!-- tbl2&#45;&gt;col5 -->
<g id="edge10" class="edge">
<title>tbl2&#45;&gt;col5</title>
<path fill="none" stroke="black" d="M304,-287.7C304,-279.98 304,-270.71 304,-262.11"/>
<polygon fill="black" stroke="black" points="307.5,-262.1 304,-252.1 300.5,-262.1 307.5,-262.1"/>
</g>
<!-- col6 -->
<g id="node10" class="node">
<title>col6</title>
<ellipse fill="none" stroke="red" cx="376" cy="-234" rx="27" ry="18"/>
<text text-anchor="middle" x="376" y="-230.3" font-family="Times,serif" font-size="14.00">col6</text>
<text text-anchor="middle" x="342" y="-255.8" font-family="Times,serif" font-size="14.00">pk</text>
</g>
<!-- tbl2&#45;&gt;col6 -->
<g id="edge11" class="edge">
<title>tbl2&#45;&gt;col6</title>
<path fill="none" stroke="black" d="M321.8,-287.7C331.49,-278.28 343.56,-266.53 353.86,-256.53"/>
<polygon fill="black" stroke="black" points="356.58,-258.76 361.31,-249.28 351.7,-253.74 356.58,-258.76"/>
</g>
<!-- col7 -->
<g id="node11" class="node">
<title>col7</title>
<ellipse fill="none" stroke="orange" cx="376" cy="-162" rx="27" ry="18"/>
<text text-anchor="middle" x="376" y="-158.3" font-family="Times,serif" font-size="14.00">col7</text>
</g>
<!-- tbl3&#45;&gt;col7 -->
<g id="edge12" class="edge">
<title>tbl3&#45;&gt;col7</title>
<path fill="none" stroke="black" d="M449.94,-287.94C441.18,-269.78 426.5,-240.36 412,-216 406.2,-206.25 399.3,-195.86 393.11,-186.88"/>
<polygon fill="black" stroke="black" points="395.81,-184.64 387.21,-178.45 390.08,-188.65 395.81,-184.64"/>
</g>
<!-- col8 -->
<g id="node12" class="node">
<title>col8</title>
<ellipse fill="none" stroke="red" cx="486" cy="-234" rx="27" ry="18"/>
<text text-anchor="middle" x="486" y="-230.3" font-family="Times,serif" font-size="14.00">col8</text>
<text text-anchor="middle" x="452" y="-255.8" font-family="Times,serif" font-size="14.00">pk</text>
</g>
<!-- tbl3&#45;&gt;col8 -->
<g id="edge13" class="edge">
<title>tbl3&#45;&gt;col8</title>
<path fill="none" stroke="black" d="M464.92,-287.7C468.12,-279.7 471.99,-270.02 475.54,-261.15"/>
<polygon fill="black" stroke="black" points="478.89,-262.21 479.35,-251.62 472.39,-259.61 478.89,-262.21"/>
</g>
<!-- col9 -->
<g id="node13" class="node">
<title>col9</title>
<ellipse fill="none" stroke="lightgreen" cx="558" cy="-234" rx="27" ry="18"/>
<text text-anchor="middle" x="558" y="-230.3" font-family="Times,serif" font-size="14.00">col9</text>
</g>
<!-- tbl3&#45;&gt;col9 -->
<g id="edge14" class="edge">
<title>tbl3&#45;&gt;col9</title>
<path fill="none" stroke="black" d="M482.46,-287.88C497.35,-277.45 516.37,-264.14 531.59,-253.48"/>
<polygon fill="black" stroke="black" points="533.88,-256.16 540.06,-247.56 529.86,-250.42 533.88,-256.16"/>
</g>
<!-- key1 -->
<g id="node14" class="node">
<title>key1</title>
<polygon fill="none" stroke="red" points="50,-180 10.45,-162 50,-144 89.55,-162 50,-180"/>
<text text-anchor="middle" x="50" y="-158.3" font-family="Times,serif" font-size="14.00">key1</text>
</g>
<!-- col1&#45;&gt;key1 -->
<g id="edge7" class="edge">
<title>col1&#45;&gt;key1</title>
<path fill="none" stroke="black" d="M50,-215.7C50,-207.98 50,-198.71 50,-190.11"/>
<polygon fill="black" stroke="black" points="53.5,-190.1 50,-180.1 46.5,-190.1 53.5,-190.1"/>
</g>
<!-- key2 -->
<g id="node15" class="node">
<title>key2</title>
<polygon fill="none" stroke="blue" points="118,-108 78.45,-90 118,-72 157.55,-90 118,-108"/>
<text text-anchor="middle" x="118" y="-86.3" font-family="Times,serif" font-size="14.00">key2</text>
</g>
<!-- col1&#45;&gt;key2 -->
<g id="edge8" class="edge">
<title>col1&#45;&gt;key2</title>
<path fill="none" stroke="black" d="M70.44,-215.79C80.51,-206.25 91.96,-193.57 99,-180 109.09,-160.54 113.82,-136.02 116.04,-117.65"/>
<polygon fill="black" stroke="black" points="119.53,-117.94 117.08,-107.63 112.57,-117.22 119.53,-117.94"/>
</g>
<!-- col6&#45;&gt;col7 -->
<g id="edge17" class="edge">
<title>col6&#45;&gt;col7</title>
<path fill="none" stroke="orange" d="M370.16,-216.41C369.3,-208.51 369.05,-198.85 369.41,-189.94"/>
<polygon fill="orange" stroke="orange" points="372.9,-190.18 370.12,-179.96 365.92,-189.68 372.9,-190.18"/>
<text text-anchor="middle" x="363.25" y="-201.81" font-family="Times,serif" font-size="14.00">fk</text>
</g>
<!-- col7&#45;&gt;col6 -->
<g id="edge18" class="edge">
<title>col7&#45;&gt;col6</title>
<path fill="none" stroke="green" d="M381.88,-179.96C382.71,-187.83 382.95,-197.37 382.58,-206.19"/>
<polygon fill="green" stroke="green" points="379.07,-206.18 381.84,-216.41 386.06,-206.69 379.07,-206.18"/>
</g>
<!-- key1&#45;&gt;key2 -->
<g id="edge15" class="edge">
<title>key1&#45;&gt;key2</title>
<path fill="none" stroke="green" d="M61.54,-149.13C71.83,-138.53 87.09,-122.82 99.15,-110.4"/>
<polygon fill="green" stroke="green" points="101.72,-112.78 106.18,-103.17 96.7,-107.9 101.72,-112.78"/>
</g>
<!-- key2&#45;&gt;col4 -->
<g id="edge16" class="edge">
<title>key2&#45;&gt;col4</title>
<path fill="none" stroke="red" d="M129.32,-76.81C138.39,-67.04 151.36,-53.07 162.28,-41.31"/>
<polygon fill="red" stroke="red" points="164.86,-43.68 169.1,-33.97 159.73,-38.92 164.86,-43.68"/>
<text text-anchor="middle" x="143.17" y="-59.23" font-family="Times,serif" font-size="14.00">fk</text>
</g>
</g>
</svg>
