<?xml version="1.0" encoding="UTF-8" standalone="no"?>
<!DOCTYPE svg PUBLIC "-//W3C//DTD SVG 1.1//EN"
 "http://www.w3.org/Graphics/SVG/1.1/DTD/svg11.dtd">
<!-- Generated by graphviz version 5.0.0 (20220707.1540)
 -->
<!-- Title: genesynth Pages: 1 -->
<svg width="514pt" height="387pt"
 viewBox="0.00 0.00 513.50 387.00" xmlns="http://www.w3.org/2000/svg" xmlns:xlink="http://www.w3.org/1999/xlink">
<g id="graph0" class="graph" transform="scale(1 1) rotate(0) translate(4 383)">
<title>genesynth</title>
<polygon fill="white" stroke="transparent" points="-4,4 -4,-383 509.5,-383 509.5,4 -4,4"/>
<g id="clust1" class="cluster">
<title>cluster_module</title>
<polygon fill="none" stroke="black" points="174,-8 174,-371 414,-371 414,-8 174,-8"/>
<text text-anchor="middle" x="294" y="-355.8" font-family="Times,serif" font-size="14.00">genesynth</text>
</g>
<!-- ML -->
<g id="node1" class="node">
<title>ML</title>
<polygon fill="lightgray" stroke="black" points="503,-52 449,-52 449,-16 503,-16 503,-52"/>
<text text-anchor="middle" x="476" y="-30.3" font-family="Times,serif" font-size="14.00">ML</text>
</g>
<!-- types.py -->
<g id="node6" class="node">
<title>types.py</title>
<polygon fill="none" stroke="black" points="296,-268 234,-268 234,-232 296,-232 296,-268"/>
<text text-anchor="middle" x="265" y="-246.3" font-family="Times,serif" font-size="14.00">types.py</text>
</g>
<!-- ML&#45;&gt;types.py -->
<g id="edge1" class="edge">
<title>ML&#45;&gt;types.py</title>
<path fill="none" stroke="black" stroke-dasharray="5,2" d="M482.36,-52.08C488.19,-70.51 494.58,-100.4 485,-124 468.21,-165.35 452.86,-172.37 415,-196 373.92,-221.64 355.38,-214.89 305.94,-231.91"/>
<polygon fill="black" stroke="black" points="304.56,-228.69 296.34,-235.38 306.93,-235.28 304.56,-228.69"/>
<text text-anchor="middle" x="391.97" y="-198.62" font-family="Times,serif" font-size="8.00">ML generated</text>
</g>
<!-- User Config -->
<g id="node2" class="node">
<title>User Config</title>
<polygon fill="lightgray" stroke="black" points="505.5,-340 422.5,-340 422.5,-304 505.5,-304 505.5,-340"/>
<text text-anchor="middle" x="464" y="-318.3" font-family="Times,serif" font-size="14.00">User Config</text>
</g>
<!-- constraints.py -->
<g id="node7" class="node">
<title>constraints.py</title>
<polygon fill="none" stroke="black" points="406,-268 314,-268 314,-232 406,-232 406,-268"/>
<text text-anchor="middle" x="360" y="-246.3" font-family="Times,serif" font-size="14.00">constraints.py</text>
</g>
<!-- User Config&#45;&gt;constraints.py -->
<g id="edge2" class="edge">
<title>User Config&#45;&gt;constraints.py</title>
<path fill="none" stroke="black" stroke-dasharray="5,2" d="M438.56,-303.88C425.21,-294.89 408.68,-283.76 394.22,-274.03"/>
<polygon fill="black" stroke="black" points="395.79,-270.87 385.54,-268.19 391.88,-276.68 395.79,-270.87"/>
<text text-anchor="middle" x="400.16" y="-288.71" font-family="Times,serif" font-size="8.00">YAML</text>
</g>
<!-- Data Plugin -->
<g id="node3" class="node">
<title>Data Plugin</title>
<polygon fill="lightgray" stroke="black" points="165.5,-268 84.5,-268 84.5,-232 165.5,-232 165.5,-268"/>
<text text-anchor="middle" x="125" y="-246.3" font-family="Times,serif" font-size="14.00">Data Plugin</text>
</g>
<!-- io.py -->
<g id="node8" class="node">
<title>io.py</title>
<polygon fill="none" stroke="black" points="320,-196 266,-196 266,-160 320,-160 320,-196"/>
<text text-anchor="middle" x="293" y="-174.3" font-family="Times,serif" font-size="14.00">io.py</text>
</g>
<!-- Data Plugin&#45;&gt;io.py -->
<g id="edge3" class="edge">
<title>Data Plugin&#45;&gt;io.py</title>
<path fill="none" stroke="black" stroke-dasharray="5,2" d="M165.7,-233.38C189.78,-223.98 221.03,-211.49 256.38,-196.16"/>
<polygon fill="black" stroke="black" points="258.19,-199.19 265.95,-191.98 255.39,-192.78 258.19,-199.19"/>
</g>
<!-- External Worker Scheduler -->
<g id="node4" class="node">
<title>External Worker Scheduler</title>
<polygon fill="lightgray" stroke="black" points="164,-196 0,-196 0,-160 164,-160 164,-196"/>
<text text-anchor="middle" x="82" y="-174.3" font-family="Times,serif" font-size="14.00">External Worker Scheduler</text>
</g>
<!-- orchestration.py -->
<g id="node9" class="node">
<title>orchestration.py</title>
<polygon fill="none" stroke="black" points="345,-124 241,-124 241,-88 345,-88 345,-124"/>
<text text-anchor="middle" x="293" y="-102.3" font-family="Times,serif" font-size="14.00">orchestration.py</text>
</g>
<!-- External Worker Scheduler&#45;&gt;orchestration.py -->
<g id="edge4" class="edge">
<title>External Worker Scheduler&#45;&gt;orchestration.py</title>
<path fill="none" stroke="black" stroke-dasharray="5,2" d="M133.35,-159.97C162.96,-150.14 200.37,-137.73 231.54,-127.39"/>
<polygon fill="black" stroke="black" points="233.03,-130.58 241.42,-124.11 230.83,-123.94 233.03,-130.58"/>
<text text-anchor="middle" x="170.43" y="-144.62" font-family="Times,serif" font-size="8.00">k8s/celery</text>
</g>
<!-- DBT -->
<g id="node5" class="node">
<title>DBT</title>
<polygon fill="lightgray" stroke="black" points="476,-124 422,-124 422,-88 476,-88 476,-124"/>
<text text-anchor="middle" x="449" y="-102.3" font-family="Times,serif" font-size="14.00">DBT</text>
</g>
<!-- model.py -->
<g id="node11" class="node">
<title>model.py</title>
<polygon fill="none" stroke="black" points="406,-196 338,-196 338,-160 406,-160 406,-196"/>
<text text-anchor="middle" x="372" y="-174.3" font-family="Times,serif" font-size="14.00">model.py</text>
</g>
<!-- types.py&#45;&gt;model.py -->
<g id="edge7" class="edge">
<title>types.py&#45;&gt;model.py</title>
<path fill="none" stroke="black" d="M291.18,-231.88C305.04,-222.81 322.24,-211.55 337.21,-201.76"/>
<polygon fill="black" stroke="black" points="339.27,-204.59 345.72,-196.19 335.44,-198.74 339.27,-204.59"/>
<text text-anchor="middle" x="300.61" y="-216.53" font-family="Times,serif" font-size="8.00">basic types</text>
</g>
<!-- constraints.py&#45;&gt;model.py -->
<g id="edge6" class="edge">
<title>constraints.py&#45;&gt;model.py</title>
<path fill="none" stroke="black" d="M362.97,-231.7C364.29,-223.98 365.88,-214.71 367.35,-206.11"/>
<polygon fill="black" stroke="black" points="370.83,-206.55 369.07,-196.1 363.93,-205.37 370.83,-206.55"/>
<text text-anchor="middle" x="309.52" y="-207.49" font-family="Times,serif" font-size="8.00">encode human readable constraints</text>
</g>
<!-- io.py&#45;&gt;orchestration.py -->
<g id="edge10" class="edge">
<title>io.py&#45;&gt;orchestration.py</title>
<path fill="none" stroke="black" d="M293,-159.7C293,-151.98 293,-142.71 293,-134.11"/>
<polygon fill="black" stroke="black" points="296.5,-134.1 293,-124.1 289.5,-134.1 296.5,-134.1"/>
<text text-anchor="middle" x="275" y="-144.49" font-family="Times,serif" font-size="8.00">io adapters</text>
</g>
<!-- orchestration.py&#45;&gt;ML -->
<g id="edge14" class="edge">
<title>orchestration.py&#45;&gt;ML</title>
<path fill="none" stroke="black" stroke-dasharray="5,2" d="M337.77,-87.88C369.04,-75.91 410.28,-60.14 439.55,-48.94"/>
<polygon fill="black" stroke="black" points="440.9,-52.17 448.99,-45.33 438.4,-45.64 440.9,-52.17"/>
<text text-anchor="middle" x="358.6" y="-69.12" font-family="Times,serif" font-size="8.00">sklearn/keras/pytorch</text>
</g>
<!-- cli.py -->
<g id="node13" class="node">
<title>cli.py</title>
<polygon fill="none" stroke="black" points="281,-52 227,-52 227,-16 281,-16 281,-52"/>
<text text-anchor="middle" x="254" y="-30.3" font-family="Times,serif" font-size="14.00">cli.py</text>
</g>
<!-- orchestration.py&#45;&gt;cli.py -->
<g id="edge11" class="edge">
<title>orchestration.py&#45;&gt;cli.py</title>
<path fill="none" stroke="black" stroke-dasharray="5,2" d="M283.36,-87.7C278.87,-79.64 273.44,-69.89 268.48,-60.98"/>
<polygon fill="black" stroke="black" points="271.45,-59.14 263.53,-52.1 265.34,-62.54 271.45,-59.14"/>
</g>
<!-- server.py -->
<g id="node14" class="node">
<title>server.py</title>
<polygon fill="none" stroke="black" points="365,-52 299,-52 299,-16 365,-16 365,-52"/>
<text text-anchor="middle" x="332" y="-30.3" font-family="Times,serif" font-size="14.00">server.py</text>
</g>
<!-- orchestration.py&#45;&gt;server.py -->
<g id="edge12" class="edge">
<title>orchestration.py&#45;&gt;server.py</title>
<path fill="none" stroke="black" stroke-dasharray="5,2" d="M302.64,-87.7C307.13,-79.64 312.56,-69.89 317.52,-60.98"/>
<polygon fill="black" stroke="black" points="320.66,-62.54 322.47,-52.1 314.55,-59.14 320.66,-62.54"/>
<text text-anchor="middle" x="291.04" y="-72.54" font-family="Times,serif" font-size="8.00">aiohttp/gRPC</text>
</g>
<!-- mat.py -->
<g id="node10" class="node">
<title>mat.py</title>
<polygon fill="none" stroke="black" points="292.5,-340 237.5,-340 237.5,-304 292.5,-304 292.5,-340"/>
<text text-anchor="middle" x="265" y="-318.3" font-family="Times,serif" font-size="14.00">mat.py</text>
</g>
<!-- mat.py&#45;&gt;types.py -->
<g id="edge5" class="edge">
<title>mat.py&#45;&gt;types.py</title>
<path fill="none" stroke="black" d="M265,-303.7C265,-295.98 265,-286.71 265,-278.11"/>
<polygon fill="black" stroke="black" points="268.5,-278.1 265,-268.1 261.5,-278.1 268.5,-278.1"/>
<text text-anchor="middle" x="237" y="-288.49" font-family="Times,serif" font-size="8.00">statistical models</text>
</g>
<!-- model.py&#45;&gt;DBT -->
<g id="edge13" class="edge">
<title>model.py&#45;&gt;DBT</title>
<path fill="none" stroke="black" stroke-dasharray="5,2" d="M391.03,-159.7C400.54,-151.05 412.21,-140.45 422.57,-131.03"/>
<polygon fill="black" stroke="black" points="425.14,-133.42 430.19,-124.1 420.43,-128.24 425.14,-133.42"/>
<text text-anchor="middle" x="350.8" y="-135.33" font-family="Times,serif" font-size="8.00">source data synth based on dbt model</text>
</g>
<!-- model.py&#45;&gt;orchestration.py -->
<g id="edge8" class="edge">
<title>model.py&#45;&gt;orchestration.py</title>
<path fill="none" stroke="black" d="M352.47,-159.7C342.62,-150.97 330.51,-140.24 319.8,-130.75"/>
<polygon fill="black" stroke="black" points="322.11,-128.12 312.3,-124.1 317.47,-133.36 322.11,-128.12"/>
<text text-anchor="middle" x="324.51" y="-144.61" font-family="Times,serif" font-size="8.00">AST</text>
</g>
<!-- graph.py -->
<g id="node12" class="node">
<title>graph.py</title>
<polygon fill="none" stroke="black" points="247.5,-196 182.5,-196 182.5,-160 247.5,-160 247.5,-196"/>
<text text-anchor="middle" x="215" y="-174.3" font-family="Times,serif" font-size="14.00">graph.py</text>
</g>
<!-- graph.py&#45;&gt;orchestration.py -->
<g id="edge9" class="edge">
<title>graph.py&#45;&gt;orchestration.py</title>
<path fill="none" stroke="black" d="M234.28,-159.7C243.92,-151.05 255.73,-140.45 266.23,-131.03"/>
<polygon fill="black" stroke="black" points="268.84,-133.39 273.94,-124.1 264.16,-128.18 268.84,-133.39"/>
<text text-anchor="middle" x="210.3" y="-135.33" font-family="Times,serif" font-size="8.00">required order of operation</text>
</g>
</g>
</svg>
