<?xml version="1.0" encoding="UTF-8" standalone="no"?>
<!DOCTYPE svg PUBLIC "-//W3C//DTD SVG 1.1//EN"
 "http://www.w3.org/Graphics/SVG/1.1/DTD/svg11.dtd">
<!-- Generated by graphviz version 7.1.0 (20230121.1956)
 -->
<!-- Title: genesynth Pages: 1 -->
<svg width="563pt" height="459pt"
 viewBox="0.00 0.00 562.93 459.00" xmlns="http://www.w3.org/2000/svg" xmlns:xlink="http://www.w3.org/1999/xlink">
<g id="graph0" class="graph" transform="scale(1 1) rotate(0) translate(4 455)">
<title>genesynth</title>
<polygon fill="white" stroke="none" points="-4,4 -4,-455 558.93,-455 558.93,4 -4,4"/>
<g id="clust1" class="cluster">
<title>cluster_module</title>
<polygon fill="none" stroke="black" points="174,-8 174,-443 432,-443 432,-8 174,-8"/>
<text text-anchor="middle" x="303" y="-427.8" font-family="Times,serif" font-size="14.00">genesynth</text>
</g>
<!-- ML -->
<g id="node1" class="node">
<title>ML</title>
<polygon fill="lightgray" stroke="black" points="536,-52 482,-52 482,-16 536,-16 536,-52"/>
<text text-anchor="middle" x="509" y="-30.3" font-family="Times,serif" font-size="14.00">ML</text>
</g>
<!-- types.py -->
<g id="node6" class="node">
<title>types.py</title>
<polygon fill="none" stroke="black" points="387,-340 325,-340 325,-304 387,-304 387,-340"/>
<text text-anchor="middle" x="356" y="-318.3" font-family="Times,serif" font-size="14.00">types.py</text>
</g>
<!-- ML&#45;&gt;types.py -->
<g id="edge1" class="edge">
<title>ML&#45;&gt;types.py</title>
<path fill="none" stroke="black" stroke-dasharray="5,2" d="M517.88,-52.31C537.92,-94.07 581.22,-201.77 532,-268 501.53,-309 440.35,-319.45 398.78,-321.52"/>
<polygon fill="black" stroke="black" points="398.74,-318.02 388.87,-321.86 398.98,-325.02 398.74,-318.02"/>
<text text-anchor="middle" x="509.49" y="-270.61" font-family="Times,serif" font-size="8.00">ML generated</text>
</g>
<!-- User Config -->
<g id="node2" class="node">
<title>User Config</title>
<polygon fill="lightgray" stroke="black" points="163.5,-340 80.5,-340 80.5,-304 163.5,-304 163.5,-340"/>
<text text-anchor="middle" x="122" y="-318.3" font-family="Times,serif" font-size="14.00">User Config</text>
</g>
<!-- constraints.py -->
<g id="node7" class="node">
<title>constraints.py</title>
<polygon fill="none" stroke="black" points="314,-268 222,-268 222,-232 314,-232 314,-268"/>
<text text-anchor="middle" x="268" y="-246.3" font-family="Times,serif" font-size="14.00">constraints.py</text>
</g>
<!-- User Config&#45;&gt;constraints.py -->
<g id="edge2" class="edge">
<title>User Config&#45;&gt;constraints.py</title>
<path fill="none" stroke="black" stroke-dasharray="5,2" d="M158.47,-303.52C177.53,-294.38 201.06,-283.09 221.43,-273.33"/>
<polygon fill="black" stroke="black" points="222.88,-276.52 230.38,-269.04 219.85,-270.2 222.88,-276.52"/>
<text text-anchor="middle" x="183.54" y="-288.58" font-family="Times,serif" font-size="8.00">YAML</text>
</g>
<!-- Data Plugin -->
<g id="node3" class="node">
<title>Data Plugin</title>
<polygon fill="lightgray" stroke="black" points="522.5,-268 441.5,-268 441.5,-232 522.5,-232 522.5,-268"/>
<text text-anchor="middle" x="482" y="-246.3" font-family="Times,serif" font-size="14.00">Data Plugin</text>
</g>
<!-- io.py -->
<g id="node8" class="node">
<title>io.py</title>
<polygon fill="none" stroke="black" points="390,-196 336,-196 336,-160 390,-160 390,-196"/>
<text text-anchor="middle" x="363" y="-174.3" font-family="Times,serif" font-size="14.00">io.py</text>
</g>
<!-- Data Plugin&#45;&gt;io.py -->
<g id="edge3" class="edge">
<title>Data Plugin&#45;&gt;io.py</title>
<path fill="none" stroke="black" stroke-dasharray="5,2" d="M452.28,-231.52C436.4,-222.17 416.7,-210.59 399.85,-200.68"/>
<polygon fill="black" stroke="black" points="402.01,-197.88 391.61,-195.83 398.46,-203.92 402.01,-197.88"/>
</g>
<!-- External Worker Scheduler -->
<g id="node4" class="node">
<title>External Worker Scheduler</title>
<polygon fill="lightgray" stroke="black" points="164,-196 0,-196 0,-160 164,-160 164,-196"/>
<text text-anchor="middle" x="82" y="-174.3" font-family="Times,serif" font-size="14.00">External Worker Scheduler</text>
</g>
<!-- orchestration.py -->
<g id="node9" class="node">
<title>orchestration.py</title>
<polygon fill="none" stroke="black" points="320,-124 216,-124 216,-88 320,-88 320,-124"/>
<text text-anchor="middle" x="268" y="-102.3" font-family="Times,serif" font-size="14.00">orchestration.py</text>
</g>
<!-- External Worker Scheduler&#45;&gt;orchestration.py -->
<g id="edge4" class="edge">
<title>External Worker Scheduler&#45;&gt;orchestration.py</title>
<path fill="none" stroke="black" stroke-dasharray="5,2" d="M128.46,-159.52C153.52,-150.08 184.65,-138.37 211.15,-128.39"/>
<polygon fill="black" stroke="black" points="212.27,-131.71 220.4,-124.91 209.81,-125.16 212.27,-131.71"/>
<text text-anchor="middle" x="158.28" y="-144.5" font-family="Times,serif" font-size="8.00">k8s/celery</text>
</g>
<!-- DBT -->
<g id="node5" class="node">
<title>DBT</title>
<polygon fill="lightgray" stroke="black" points="494,-124 440,-124 440,-88 494,-88 494,-124"/>
<text text-anchor="middle" x="467" y="-102.3" font-family="Times,serif" font-size="14.00">DBT</text>
</g>
<!-- model.py -->
<g id="node11" class="node">
<title>model.py</title>
<polygon fill="none" stroke="black" points="302,-196 234,-196 234,-160 302,-160 302,-196"/>
<text text-anchor="middle" x="268" y="-174.3" font-family="Times,serif" font-size="14.00">model.py</text>
</g>
<!-- types.py&#45;&gt;model.py -->
<g id="edge10" class="edge">
<title>types.py&#45;&gt;model.py</title>
<path fill="none" stroke="black" d="M324.71,-319.33C290.78,-315.65 238.1,-304.08 213,-268 203.86,-254.87 206.74,-246.72 213,-232 217.55,-221.29 225.45,-211.7 233.86,-203.71"/>
<polygon fill="black" stroke="black" points="235.98,-206.5 241.19,-197.28 231.37,-201.24 235.98,-206.5"/>
<text text-anchor="middle" x="247.06" y="-308.23" font-family="Times,serif" font-size="8.00">basic types</text>
</g>
<!-- extensions.py -->
<g id="node12" class="node">
<title>extensions.py</title>
<polygon fill="none" stroke="black" points="423.5,-268 332.5,-268 332.5,-232 423.5,-232 423.5,-268"/>
<text text-anchor="middle" x="378" y="-246.3" font-family="Times,serif" font-size="14.00">extensions.py</text>
</g>
<!-- types.py&#45;&gt;extensions.py -->
<g id="edge8" class="edge">
<title>types.py&#45;&gt;extensions.py</title>
<path fill="none" stroke="black" d="M361.44,-303.7C363.78,-296.24 366.58,-287.32 369.21,-278.97"/>
<polygon fill="black" stroke="black" points="372.51,-280.14 372.17,-269.55 365.83,-278.04 372.51,-280.14"/>
<text text-anchor="middle" x="348.97" y="-288.7" font-family="Times,serif" font-size="8.00">basic types</text>
</g>
<!-- constraints.py&#45;&gt;io.py -->
<g id="edge7" class="edge">
<title>constraints.py&#45;&gt;io.py</title>
<path fill="none" stroke="black" d="M291.48,-231.7C303.24,-223.03 317.67,-212.4 330.48,-202.96"/>
<polygon fill="black" stroke="black" points="332.26,-205.99 338.24,-197.24 328.11,-200.36 332.26,-205.99"/>
<text text-anchor="middle" x="258.8" y="-216.75" font-family="Times,serif" font-size="8.00">encode human readable constraints</text>
</g>
<!-- constraints.py&#45;&gt;model.py -->
<g id="edge6" class="edge">
<title>constraints.py&#45;&gt;model.py</title>
<path fill="none" stroke="black" d="M268,-231.7C268,-224.41 268,-215.73 268,-207.54"/>
<polygon fill="black" stroke="black" points="271.5,-207.62 268,-197.62 264.5,-207.62 271.5,-207.62"/>
<text text-anchor="middle" x="211.5" y="-207.73" font-family="Times,serif" font-size="8.00">encode human readable constraints</text>
</g>
<!-- io.py&#45;&gt;orchestration.py -->
<g id="edge14" class="edge">
<title>io.py&#45;&gt;orchestration.py</title>
<path fill="none" stroke="black" d="M339.52,-159.7C327.76,-151.03 313.33,-140.4 300.52,-130.96"/>
<polygon fill="black" stroke="black" points="302.89,-128.36 292.76,-125.24 298.74,-133.99 302.89,-128.36"/>
<text text-anchor="middle" x="297.7" y="-144.75" font-family="Times,serif" font-size="8.00">io adapters</text>
</g>
<!-- orchestration.py&#45;&gt;ML -->
<g id="edge18" class="edge">
<title>orchestration.py&#45;&gt;ML</title>
<path fill="none" stroke="black" stroke-dasharray="5,2" d="M320.29,-89.81C365.5,-76.68 429.8,-58 470.45,-46.2"/>
<polygon fill="black" stroke="black" points="471.42,-49.56 480.05,-43.41 469.47,-42.84 471.42,-49.56"/>
<text text-anchor="middle" x="365.84" y="-69.01" font-family="Times,serif" font-size="8.00">sklearn/keras/pytorch</text>
</g>
<!-- cli.py -->
<g id="node14" class="node">
<title>cli.py</title>
<polygon fill="none" stroke="black" points="265,-52 211,-52 211,-16 265,-16 265,-52"/>
<text text-anchor="middle" x="238" y="-30.3" font-family="Times,serif" font-size="14.00">cli.py</text>
</g>
<!-- orchestration.py&#45;&gt;cli.py -->
<g id="edge15" class="edge">
<title>orchestration.py&#45;&gt;cli.py</title>
<path fill="none" stroke="black" stroke-dasharray="5,2" d="M260.58,-87.7C257.35,-80.15 253.48,-71.12 249.86,-62.68"/>
<polygon fill="black" stroke="black" points="253.08,-61.31 245.93,-53.5 246.65,-64.07 253.08,-61.31"/>
</g>
<!-- server.py -->
<g id="node15" class="node">
<title>server.py</title>
<polygon fill="none" stroke="black" points="349,-52 283,-52 283,-16 349,-16 349,-52"/>
<text text-anchor="middle" x="316" y="-30.3" font-family="Times,serif" font-size="14.00">server.py</text>
</g>
<!-- orchestration.py&#45;&gt;server.py -->
<g id="edge16" class="edge">
<title>orchestration.py&#45;&gt;server.py</title>
<path fill="none" stroke="black" stroke-dasharray="5,2" d="M279.87,-87.7C285.27,-79.81 291.79,-70.3 297.8,-61.55"/>
<polygon fill="black" stroke="black" points="300.65,-63.58 303.42,-53.35 294.87,-59.62 300.65,-63.58"/>
<text text-anchor="middle" x="270.57" y="-72.5" font-family="Times,serif" font-size="8.00">aiohttp/gRPC</text>
</g>
<!-- mat.py -->
<g id="node10" class="node">
<title>mat.py</title>
<polygon fill="none" stroke="black" points="383.5,-412 328.5,-412 328.5,-376 383.5,-376 383.5,-412"/>
<text text-anchor="middle" x="356" y="-390.3" font-family="Times,serif" font-size="14.00">mat.py</text>
</g>
<!-- mat.py&#45;&gt;types.py -->
<g id="edge5" class="edge">
<title>mat.py&#45;&gt;types.py</title>
<path fill="none" stroke="black" d="M356,-375.7C356,-368.41 356,-359.73 356,-351.54"/>
<polygon fill="black" stroke="black" points="359.5,-351.62 356,-341.62 352.5,-351.62 359.5,-351.62"/>
<text text-anchor="middle" x="328" y="-360.73" font-family="Times,serif" font-size="8.00">statistical models</text>
</g>
<!-- model.py&#45;&gt;DBT -->
<g id="edge17" class="edge">
<title>model.py&#45;&gt;DBT</title>
<path fill="none" stroke="black" stroke-dasharray="5,2" d="M302.22,-167.07C339.34,-156.16 397.21,-138.74 429.22,-126.55"/>
<polygon fill="black" stroke="black" points="430.38,-129.85 438.36,-122.88 427.77,-123.36 430.38,-129.85"/>
<text text-anchor="middle" x="431.42" y="-148.7" font-family="Times,serif" font-size="8.00">source data synth based on dbt model</text>
</g>
<!-- model.py&#45;&gt;orchestration.py -->
<g id="edge11" class="edge">
<title>model.py&#45;&gt;orchestration.py</title>
<path fill="none" stroke="black" d="M268,-159.7C268,-152.41 268,-143.73 268,-135.54"/>
<polygon fill="black" stroke="black" points="271.5,-135.62 268,-125.62 264.5,-135.62 271.5,-135.62"/>
<text text-anchor="middle" x="260" y="-144.73" font-family="Times,serif" font-size="8.00">AST</text>
</g>
<!-- extensions.py&#45;&gt;io.py -->
<g id="edge9" class="edge">
<title>extensions.py&#45;&gt;io.py</title>
<path fill="none" stroke="black" d="M374.29,-231.7C372.71,-224.32 370.83,-215.52 369.05,-207.25"/>
<polygon fill="black" stroke="black" points="372.5,-206.63 366.98,-197.58 365.66,-208.1 372.5,-206.63"/>
<text text-anchor="middle" x="352.48" y="-216.52" font-family="Times,serif" font-size="8.00">basic types</text>
</g>
<!-- graph.py -->
<g id="node13" class="node">
<title>graph.py</title>
<polygon fill="none" stroke="black" points="289.5,-412 224.5,-412 224.5,-376 289.5,-376 289.5,-412"/>
<text text-anchor="middle" x="257" y="-390.3" font-family="Times,serif" font-size="14.00">graph.py</text>
</g>
<!-- graph.py&#45;&gt;types.py -->
<g id="edge13" class="edge">
<title>graph.py&#45;&gt;types.py</title>
<path fill="none" stroke="black" d="M281.73,-375.52C293.99,-366.85 308.98,-356.25 322.27,-346.85"/>
<polygon fill="black" stroke="black" points="324.21,-349.77 330.35,-341.13 320.17,-344.05 324.21,-349.77"/>
<text text-anchor="middle" x="245.51" y="-351.6" font-family="Times,serif" font-size="8.00">foreign reference and graph traversal</text>
</g>
<!-- graph.py&#45;&gt;orchestration.py -->
<g id="edge12" class="edge">
<title>graph.py&#45;&gt;orchestration.py</title>
<path fill="none" stroke="black" d="M245.28,-375.64C227.08,-346.65 194.9,-286.23 203,-232 207.94,-198.91 209.28,-189.54 225,-160 230.02,-150.58 236.83,-141.22 243.55,-133.05"/>
<polygon fill="black" stroke="black" points="246.14,-135.41 250.01,-125.54 240.83,-130.84 246.14,-135.41"/>
<text text-anchor="middle" x="159" y="-234.59" font-family="Times,serif" font-size="8.00">required order of operation</text>
</g>
</g>
</svg>
