<?xml version="1.0" encoding="UTF-8" standalone="no"?>
<!DOCTYPE svg PUBLIC "-//W3C//DTD SVG 1.1//EN"
 "http://www.w3.org/Graphics/SVG/1.1/DTD/svg11.dtd">
<!-- Generated by graphviz version 7.1.0 (20230121.1956)
 -->
<!-- Title: genesynth Pages: 1 -->
<svg width="584pt" height="459pt"
 viewBox="0.00 0.00 583.92 459.00" xmlns="http://www.w3.org/2000/svg" xmlns:xlink="http://www.w3.org/1999/xlink">
<g id="graph0" class="graph" transform="scale(1 1) rotate(0) translate(4 455)">
<title>genesynth</title>
<polygon fill="white" stroke="none" points="-4,4 -4,-455 579.92,-455 579.92,4 -4,4"/>
<g id="clust1" class="cluster">
<title>cluster_module</title>
<polygon fill="none" stroke="black" points="174,-8 174,-443 452,-443 452,-8 174,-8"/>
<text text-anchor="middle" x="313" y="-427.8" font-family="Times,serif" font-size="14.00">genesynth</text>
</g>
<!-- ML -->
<g id="node1" class="node">
<title>ML</title>
<polygon fill="lightgray" stroke="black" points="556,-52 502,-52 502,-16 556,-16 556,-52"/>
<text text-anchor="middle" x="529" y="-30.3" font-family="Times,serif" font-size="14.00">ML</text>
</g>
<!-- types.py -->
<g id="node6" class="node">
<title>types.py</title>
<polygon fill="none" stroke="black" points="364,-340 302,-340 302,-304 364,-304 364,-340"/>
<text text-anchor="middle" x="333" y="-318.3" font-family="Times,serif" font-size="14.00">types.py</text>
</g>
<!-- ML&#45;&gt;types.py -->
<g id="edge1" class="edge">
<title>ML&#45;&gt;types.py</title>
<path fill="none" stroke="black" stroke-dasharray="5,2" d="M538.11,-52.49C558.67,-94.64 603.03,-203.15 552,-268 530.44,-295.39 432.76,-310.33 375.39,-316.88"/>
<polygon fill="black" stroke="black" points="375.21,-313.38 365.65,-317.95 375.98,-320.34 375.21,-313.38"/>
<text text-anchor="middle" x="455.43" y="-302.67" font-family="Times,serif" font-size="8.00">ML generated</text>
</g>
<!-- User Config -->
<g id="node2" class="node">
<title>User Config</title>
<polygon fill="lightgray" stroke="black" points="163.5,-340 80.5,-340 80.5,-304 163.5,-304 163.5,-340"/>
<text text-anchor="middle" x="122" y="-318.3" font-family="Times,serif" font-size="14.00">User Config</text>
</g>
<!-- constraints.py -->
<g id="node7" class="node">
<title>constraints.py</title>
<polygon fill="none" stroke="black" points="314,-268 222,-268 222,-232 314,-232 314,-268"/>
<text text-anchor="middle" x="268" y="-246.3" font-family="Times,serif" font-size="14.00">constraints.py</text>
</g>
<!-- User Config&#45;&gt;constraints.py -->
<g id="edge2" class="edge">
<title>User Config&#45;&gt;constraints.py</title>
<path fill="none" stroke="black" stroke-dasharray="5,2" d="M158.47,-303.52C177.53,-294.38 201.06,-283.09 221.43,-273.33"/>
<polygon fill="black" stroke="black" points="222.88,-276.52 230.38,-269.04 219.85,-270.2 222.88,-276.52"/>
<text text-anchor="middle" x="183.54" y="-288.58" font-family="Times,serif" font-size="8.00">YAML</text>
</g>
<!-- Data Plugin -->
<g id="node3" class="node">
<title>Data Plugin</title>
<polygon fill="lightgray" stroke="black" points="542.5,-268 461.5,-268 461.5,-232 542.5,-232 542.5,-268"/>
<text text-anchor="middle" x="502" y="-246.3" font-family="Times,serif" font-size="14.00">Data Plugin</text>
</g>
<!-- io.py -->
<g id="node8" class="node">
<title>io.py</title>
<polygon fill="none" stroke="black" points="367,-196 313,-196 313,-160 367,-160 367,-196"/>
<text text-anchor="middle" x="340" y="-174.3" font-family="Times,serif" font-size="14.00">io.py</text>
</g>
<!-- Data Plugin&#45;&gt;io.py -->
<g id="edge3" class="edge">
<title>Data Plugin&#45;&gt;io.py</title>
<path fill="none" stroke="black" stroke-dasharray="5,2" d="M461.54,-231.52C435.79,-220.39 402.68,-206.08 377.52,-195.21"/>
<polygon fill="black" stroke="black" points="379.23,-192.14 368.66,-191.38 376.45,-198.56 379.23,-192.14"/>
</g>
<!-- External Worker Scheduler -->
<g id="node4" class="node">
<title>External Worker Scheduler</title>
<polygon fill="lightgray" stroke="black" points="164,-196 0,-196 0,-160 164,-160 164,-196"/>
<text text-anchor="middle" x="82" y="-174.3" font-family="Times,serif" font-size="14.00">External Worker Scheduler</text>
</g>
<!-- orchestration.py -->
<g id="node9" class="node">
<title>orchestration.py</title>
<polygon fill="none" stroke="black" points="313,-124 209,-124 209,-88 313,-88 313,-124"/>
<text text-anchor="middle" x="261" y="-102.3" font-family="Times,serif" font-size="14.00">orchestration.py</text>
</g>
<!-- External Worker Scheduler&#45;&gt;orchestration.py -->
<g id="edge4" class="edge">
<title>External Worker Scheduler&#45;&gt;orchestration.py</title>
<path fill="none" stroke="black" stroke-dasharray="5,2" d="M126.71,-159.52C150.72,-150.13 180.52,-138.47 205.95,-128.53"/>
<polygon fill="black" stroke="black" points="207.1,-131.83 215.14,-124.93 204.55,-125.32 207.1,-131.83"/>
<text text-anchor="middle" x="154.56" y="-144.58" font-family="Times,serif" font-size="8.00">k8s/celery</text>
</g>
<!-- DBT -->
<g id="node5" class="node">
<title>DBT</title>
<polygon fill="lightgray" stroke="black" points="514,-124 460,-124 460,-88 514,-88 514,-124"/>
<text text-anchor="middle" x="487" y="-102.3" font-family="Times,serif" font-size="14.00">DBT</text>
</g>
<!-- types.py&#45;&gt;io.py -->
<g id="edge8" class="edge">
<title>types.py&#45;&gt;io.py</title>
<path fill="none" stroke="black" d="M333.86,-303.59C335.04,-279.61 337.18,-236.14 338.6,-207.42"/>
<polygon fill="black" stroke="black" points="342.09,-207.78 339.08,-197.62 335.09,-207.44 342.09,-207.78"/>
<text text-anchor="middle" x="336.51" y="-243.5" font-family="Times,serif" font-size="8.00">basic types</text>
</g>
<!-- model.py -->
<g id="node11" class="node">
<title>model.py</title>
<polygon fill="none" stroke="black" points="295,-196 227,-196 227,-160 295,-160 295,-196"/>
<text text-anchor="middle" x="261" y="-174.3" font-family="Times,serif" font-size="14.00">model.py</text>
</g>
<!-- types.py&#45;&gt;model.py -->
<g id="edge11" class="edge">
<title>types.py&#45;&gt;model.py</title>
<path fill="none" stroke="black" d="M301.53,-316.74C272.97,-311.02 232.46,-297.86 213,-268 199.45,-247.21 215.5,-222.24 232.59,-204.05"/>
<polygon fill="black" stroke="black" points="234.76,-206.83 239.34,-197.28 229.8,-201.89 234.76,-206.83"/>
<text text-anchor="middle" x="230.6" y="-301.38" font-family="Times,serif" font-size="8.00">basic types</text>
</g>
<!-- extensions.py -->
<g id="node12" class="node">
<title>extensions.py</title>
<polygon fill="none" stroke="black" points="443.5,-268 352.5,-268 352.5,-232 443.5,-232 443.5,-268"/>
<text text-anchor="middle" x="398" y="-246.3" font-family="Times,serif" font-size="14.00">extensions.py</text>
</g>
<!-- types.py&#45;&gt;extensions.py -->
<g id="edge9" class="edge">
<title>types.py&#45;&gt;extensions.py</title>
<path fill="none" stroke="black" d="M349.07,-303.7C356.7,-295.47 365.98,-285.48 374.4,-276.42"/>
<polygon fill="black" stroke="black" points="376.85,-278.92 381.09,-269.21 371.72,-274.16 376.85,-278.92"/>
<text text-anchor="middle" x="347.51" y="-288.59" font-family="Times,serif" font-size="8.00">basic types</text>
</g>
<!-- constraints.py&#45;&gt;io.py -->
<g id="edge7" class="edge">
<title>constraints.py&#45;&gt;io.py</title>
<path fill="none" stroke="black" d="M285.8,-231.7C294.28,-223.45 304.59,-213.43 313.93,-204.35"/>
<polygon fill="black" stroke="black" points="316.34,-206.88 321.07,-197.4 311.46,-201.86 316.34,-206.88"/>
<text text-anchor="middle" x="247.57" y="-207.53" font-family="Times,serif" font-size="8.00">encode human readable constraints</text>
</g>
<!-- constraints.py&#45;&gt;model.py -->
<g id="edge6" class="edge">
<title>constraints.py&#45;&gt;model.py</title>
<path fill="none" stroke="black" d="M266.27,-231.7C265.54,-224.41 264.67,-215.73 263.85,-207.54"/>
<polygon fill="black" stroke="black" points="267.34,-207.21 262.86,-197.61 260.37,-207.91 267.34,-207.21"/>
<text text-anchor="middle" x="208.01" y="-216.73" font-family="Times,serif" font-size="8.00">encode human readable constraints</text>
</g>
<!-- io.py&#45;&gt;orchestration.py -->
<g id="edge15" class="edge">
<title>io.py&#45;&gt;orchestration.py</title>
<path fill="none" stroke="black" d="M320.47,-159.7C310.98,-151.28 299.39,-141.02 288.98,-131.79"/>
<polygon fill="black" stroke="black" points="291.52,-129.36 281.71,-125.35 286.87,-134.6 291.52,-129.36"/>
<text text-anchor="middle" x="282.51" y="-144.61" font-family="Times,serif" font-size="8.00">io adapters</text>
</g>
<!-- orchestration.py&#45;&gt;ML -->
<g id="edge19" class="edge">
<title>orchestration.py&#45;&gt;ML</title>
<path fill="none" stroke="black" stroke-dasharray="5,2" d="M313.31,-91.34C365.41,-77.73 444.15,-57.16 490.69,-45.01"/>
<polygon fill="black" stroke="black" points="491.54,-48.4 500.33,-42.49 489.77,-41.63 491.54,-48.4"/>
<text text-anchor="middle" x="372.83" y="-69.25" font-family="Times,serif" font-size="8.00">sklearn/keras/pytorch</text>
</g>
<!-- cli.py -->
<g id="node14" class="node">
<title>cli.py</title>
<polygon fill="none" stroke="black" points="258,-52 204,-52 204,-16 258,-16 258,-52"/>
<text text-anchor="middle" x="231" y="-30.3" font-family="Times,serif" font-size="14.00">cli.py</text>
</g>
<!-- orchestration.py&#45;&gt;cli.py -->
<g id="edge16" class="edge">
<title>orchestration.py&#45;&gt;cli.py</title>
<path fill="none" stroke="black" stroke-dasharray="5,2" d="M253.58,-87.7C250.35,-80.15 246.48,-71.12 242.86,-62.68"/>
<polygon fill="black" stroke="black" points="246.08,-61.31 238.93,-53.5 239.65,-64.07 246.08,-61.31"/>
</g>
<!-- server.py -->
<g id="node15" class="node">
<title>server.py</title>
<polygon fill="none" stroke="black" points="342,-52 276,-52 276,-16 342,-16 342,-52"/>
<text text-anchor="middle" x="309" y="-30.3" font-family="Times,serif" font-size="14.00">server.py</text>
</g>
<!-- orchestration.py&#45;&gt;server.py -->
<g id="edge17" class="edge">
<title>orchestration.py&#45;&gt;server.py</title>
<path fill="none" stroke="black" stroke-dasharray="5,2" d="M272.87,-87.7C278.27,-79.81 284.79,-70.3 290.8,-61.55"/>
<polygon fill="black" stroke="black" points="293.65,-63.58 296.42,-53.35 287.87,-59.62 293.65,-63.58"/>
<text text-anchor="middle" x="263.57" y="-72.5" font-family="Times,serif" font-size="8.00">aiohttp/gRPC</text>
</g>
<!-- mat.py -->
<g id="node10" class="node">
<title>mat.py</title>
<polygon fill="none" stroke="black" points="360.5,-412 305.5,-412 305.5,-376 360.5,-376 360.5,-412"/>
<text text-anchor="middle" x="333" y="-390.3" font-family="Times,serif" font-size="14.00">mat.py</text>
</g>
<!-- mat.py&#45;&gt;types.py -->
<g id="edge5" class="edge">
<title>mat.py&#45;&gt;types.py</title>
<path fill="none" stroke="black" d="M333,-375.7C333,-368.41 333,-359.73 333,-351.54"/>
<polygon fill="black" stroke="black" points="336.5,-351.62 333,-341.62 329.5,-351.62 336.5,-351.62"/>
<text text-anchor="middle" x="305" y="-360.73" font-family="Times,serif" font-size="8.00">statistical models</text>
</g>
<!-- model.py&#45;&gt;DBT -->
<g id="edge18" class="edge">
<title>model.py&#45;&gt;DBT</title>
<path fill="none" stroke="black" stroke-dasharray="5,2" d="M295.11,-163C298.1,-161.93 301.09,-160.91 304,-160 366.74,-140.28 388.86,-147.97 449.34,-126.33"/>
<polygon fill="black" stroke="black" points="450.24,-129.73 458.39,-122.96 447.8,-123.17 450.24,-129.73"/>
<text text-anchor="middle" x="438.01" y="-146.41" font-family="Times,serif" font-size="8.00">source data synth based on dbt model</text>
</g>
<!-- model.py&#45;&gt;orchestration.py -->
<g id="edge12" class="edge">
<title>model.py&#45;&gt;orchestration.py</title>
<path fill="none" stroke="black" d="M261,-159.7C261,-152.41 261,-143.73 261,-135.54"/>
<polygon fill="black" stroke="black" points="264.5,-135.62 261,-125.62 257.5,-135.62 264.5,-135.62"/>
<text text-anchor="middle" x="253" y="-144.73" font-family="Times,serif" font-size="8.00">AST</text>
</g>
<!-- extensions.py&#45;&gt;io.py -->
<g id="edge10" class="edge">
<title>extensions.py&#45;&gt;io.py</title>
<path fill="none" stroke="black" d="M383.66,-231.7C376.92,-223.56 368.74,-213.69 361.3,-204.7"/>
<polygon fill="black" stroke="black" points="364.21,-202.74 355.14,-197.27 358.82,-207.2 364.21,-202.74"/>
<text text-anchor="middle" x="350.79" y="-216.34" font-family="Times,serif" font-size="8.00">basic types</text>
</g>
<!-- graph.py -->
<g id="node13" class="node">
<title>graph.py</title>
<polygon fill="none" stroke="black" points="267.5,-412 202.5,-412 202.5,-376 267.5,-376 267.5,-412"/>
<text text-anchor="middle" x="235" y="-390.3" font-family="Times,serif" font-size="14.00">graph.py</text>
</g>
<!-- graph.py&#45;&gt;types.py -->
<g id="edge14" class="edge">
<title>graph.py&#45;&gt;types.py</title>
<path fill="none" stroke="black" d="M259.48,-375.52C271.61,-366.85 286.45,-356.25 299.61,-346.85"/>
<polygon fill="black" stroke="black" points="301.5,-349.8 307.6,-341.14 297.43,-344.1 301.5,-349.8"/>
<text text-anchor="middle" x="223.01" y="-351.6" font-family="Times,serif" font-size="8.00">foreign reference and graph traversal</text>
</g>
<!-- graph.py&#45;&gt;orchestration.py -->
<g id="edge13" class="edge">
<title>graph.py&#45;&gt;orchestration.py</title>
<path fill="none" stroke="black" d="M228.09,-375.77C217.13,-346.48 197.54,-285.01 203,-232 206.35,-199.49 203.97,-189.52 218,-160 222.58,-150.36 229.26,-140.94 236,-132.78"/>
<polygon fill="black" stroke="black" points="238.59,-135.13 242.53,-125.3 233.32,-130.53 238.59,-135.13"/>
<text text-anchor="middle" x="159" y="-234.59" font-family="Times,serif" font-size="8.00">required order of operation</text>
</g>
</g>
</svg>
