<?xml version="1.0" encoding="UTF-8" standalone="no"?>
<!DOCTYPE svg PUBLIC "-//W3C//DTD SVG 1.1//EN"
 "http://www.w3.org/Graphics/SVG/1.1/DTD/svg11.dtd">
<!-- Generated by graphviz version 7.1.0 (20230121.1956)
 -->
<!-- Title: genesynth Pages: 1 -->
<svg width="592pt" height="387pt"
 viewBox="0.00 0.00 591.50 387.00" xmlns="http://www.w3.org/2000/svg" xmlns:xlink="http://www.w3.org/1999/xlink">
<g id="graph0" class="graph" transform="scale(1 1) rotate(0) translate(4 383)">
<title>genesynth</title>
<polygon fill="white" stroke="none" points="-4,4 -4,-383 587.5,-383 587.5,4 -4,4"/>
<g id="clust1" class="cluster">
<title>cluster_module</title>
<polygon fill="none" stroke="black" points="174,-8 174,-371 492,-371 492,-8 174,-8"/>
<text text-anchor="middle" x="333" y="-355.8" font-family="Times,serif" font-size="14.00">genesynth</text>
</g>
<!-- ML -->
<g id="node1" class="node">
<title>ML</title>
<polygon fill="lightgray" stroke="black" points="581,-52 527,-52 527,-16 581,-16 581,-52"/>
<text text-anchor="middle" x="554" y="-30.3" font-family="Times,serif" font-size="14.00">ML</text>
</g>
<!-- types.py -->
<g id="node6" class="node">
<title>types.py</title>
<polygon fill="none" stroke="black" points="374,-268 312,-268 312,-232 374,-232 374,-268"/>
<text text-anchor="middle" x="343" y="-246.3" font-family="Times,serif" font-size="14.00">types.py</text>
</g>
<!-- ML&#45;&gt;types.py -->
<g id="edge1" class="edge">
<title>ML&#45;&gt;types.py</title>
<path fill="none" stroke="black" stroke-dasharray="5,2" d="M561.49,-52.35C568.42,-71.28 575.89,-101.85 563,-124 552.92,-141.32 445.47,-197.44 384.55,-228.26"/>
<polygon fill="black" stroke="black" points="383.18,-225.03 375.83,-232.66 386.33,-231.28 383.18,-225.03"/>
<text text-anchor="middle" x="470.37" y="-173.65" font-family="Times,serif" font-size="8.00">ML generated</text>
</g>
<!-- User Config -->
<g id="node2" class="node">
<title>User Config</title>
<polygon fill="lightgray" stroke="black" points="583.5,-340 500.5,-340 500.5,-304 583.5,-304 583.5,-340"/>
<text text-anchor="middle" x="542" y="-318.3" font-family="Times,serif" font-size="14.00">User Config</text>
</g>
<!-- constraints.py -->
<g id="node7" class="node">
<title>constraints.py</title>
<polygon fill="none" stroke="black" points="484,-268 392,-268 392,-232 484,-232 484,-268"/>
<text text-anchor="middle" x="438" y="-246.3" font-family="Times,serif" font-size="14.00">constraints.py</text>
</g>
<!-- User Config&#45;&gt;constraints.py -->
<g id="edge2" class="edge">
<title>User Config&#45;&gt;constraints.py</title>
<path fill="none" stroke="black" stroke-dasharray="5,2" d="M516.02,-303.52C503.02,-294.76 487.09,-284.04 473.03,-274.58"/>
<polygon fill="black" stroke="black" points="475.15,-271.79 464.9,-269.11 471.24,-277.59 475.15,-271.79"/>
<text text-anchor="middle" x="478.58" y="-288.65" font-family="Times,serif" font-size="8.00">YAML</text>
</g>
<!-- Data Plugin -->
<g id="node3" class="node">
<title>Data Plugin</title>
<polygon fill="lightgray" stroke="black" points="163.5,-268 82.5,-268 82.5,-232 163.5,-232 163.5,-268"/>
<text text-anchor="middle" x="123" y="-246.3" font-family="Times,serif" font-size="14.00">Data Plugin</text>
</g>
<!-- io.py -->
<g id="node8" class="node">
<title>io.py</title>
<polygon fill="none" stroke="black" points="275,-196 221,-196 221,-160 275,-160 275,-196"/>
<text text-anchor="middle" x="248" y="-174.3" font-family="Times,serif" font-size="14.00">io.py</text>
</g>
<!-- Data Plugin&#45;&gt;io.py -->
<g id="edge3" class="edge">
<title>Data Plugin&#45;&gt;io.py</title>
<path fill="none" stroke="black" stroke-dasharray="5,2" d="M154.22,-231.52C171.35,-221.93 192.69,-209.97 210.69,-199.89"/>
<polygon fill="black" stroke="black" points="212.24,-203.04 219.25,-195.1 208.82,-196.93 212.24,-203.04"/>
</g>
<!-- External Worker Scheduler -->
<g id="node4" class="node">
<title>External Worker Scheduler</title>
<polygon fill="lightgray" stroke="black" points="164,-196 0,-196 0,-160 164,-160 164,-196"/>
<text text-anchor="middle" x="82" y="-174.3" font-family="Times,serif" font-size="14.00">External Worker Scheduler</text>
</g>
<!-- orchestration.py -->
<g id="node9" class="node">
<title>orchestration.py</title>
<polygon fill="none" stroke="black" points="300,-124 196,-124 196,-88 300,-88 300,-124"/>
<text text-anchor="middle" x="248" y="-102.3" font-family="Times,serif" font-size="14.00">orchestration.py</text>
</g>
<!-- External Worker Scheduler&#45;&gt;orchestration.py -->
<g id="edge4" class="edge">
<title>External Worker Scheduler&#45;&gt;orchestration.py</title>
<path fill="none" stroke="black" stroke-dasharray="5,2" d="M123.46,-159.52C145.53,-150.21 172.88,-138.68 196.32,-128.79"/>
<polygon fill="black" stroke="black" points="197.53,-132.08 205.39,-124.97 194.81,-125.63 197.53,-132.08"/>
<text text-anchor="middle" x="148.25" y="-144.49" font-family="Times,serif" font-size="8.00">k8s/celery</text>
</g>
<!-- DBT -->
<g id="node5" class="node">
<title>DBT</title>
<polygon fill="lightgray" stroke="black" points="554,-124 500,-124 500,-88 554,-88 554,-124"/>
<text text-anchor="middle" x="527" y="-102.3" font-family="Times,serif" font-size="14.00">DBT</text>
</g>
<!-- types.py&#45;&gt;io.py -->
<g id="edge7" class="edge">
<title>types.py&#45;&gt;io.py</title>
<path fill="none" stroke="black" d="M319.52,-231.7C307.76,-223.03 293.33,-212.4 280.52,-202.96"/>
<polygon fill="black" stroke="black" points="282.89,-200.36 272.76,-197.24 278.74,-205.99 282.89,-200.36"/>
<text text-anchor="middle" x="277.7" y="-216.75" font-family="Times,serif" font-size="8.00">basic types</text>
</g>
<!-- model.py -->
<g id="node11" class="node">
<title>model.py</title>
<polygon fill="none" stroke="black" points="424,-196 356,-196 356,-160 424,-160 424,-196"/>
<text text-anchor="middle" x="390" y="-174.3" font-family="Times,serif" font-size="14.00">model.py</text>
</g>
<!-- types.py&#45;&gt;model.py -->
<g id="edge9" class="edge">
<title>types.py&#45;&gt;model.py</title>
<path fill="none" stroke="black" d="M354.62,-231.7C359.91,-223.81 366.3,-214.3 372.18,-205.55"/>
<polygon fill="black" stroke="black" points="375,-207.61 377.67,-197.36 369.19,-203.71 375,-207.61"/>
<text text-anchor="middle" x="348.56" y="-216.5" font-family="Times,serif" font-size="8.00">basic types</text>
</g>
<!-- constraints.py&#45;&gt;model.py -->
<g id="edge6" class="edge">
<title>constraints.py&#45;&gt;model.py</title>
<path fill="none" stroke="black" d="M426.13,-231.7C420.73,-223.81 414.21,-214.3 408.2,-205.55"/>
<polygon fill="black" stroke="black" points="411.13,-203.62 402.58,-197.35 405.35,-207.58 411.13,-203.62"/>
<text text-anchor="middle" x="357.43" y="-207.5" font-family="Times,serif" font-size="8.00">encode human readable constraints</text>
</g>
<!-- io.py&#45;&gt;orchestration.py -->
<g id="edge13" class="edge">
<title>io.py&#45;&gt;orchestration.py</title>
<path fill="none" stroke="black" d="M248,-159.7C248,-152.41 248,-143.73 248,-135.54"/>
<polygon fill="black" stroke="black" points="251.5,-135.62 248,-125.62 244.5,-135.62 251.5,-135.62"/>
<text text-anchor="middle" x="230" y="-144.73" font-family="Times,serif" font-size="8.00">io adapters</text>
</g>
<!-- orchestration.py&#45;&gt;ML -->
<g id="edge17" class="edge">
<title>orchestration.py&#45;&gt;ML</title>
<path fill="none" stroke="black" stroke-dasharray="5,2" d="M300.03,-95.05C350.4,-85.15 428.77,-69.01 496,-52 502.45,-50.37 509.27,-48.5 515.87,-46.62"/>
<polygon fill="black" stroke="black" points="516.6,-50.05 525.22,-43.89 514.64,-43.33 516.6,-50.05"/>
<text text-anchor="middle" x="378.63" y="-74" font-family="Times,serif" font-size="8.00">sklearn/keras/pytorch</text>
</g>
<!-- cli.py -->
<g id="node14" class="node">
<title>cli.py</title>
<polygon fill="none" stroke="black" points="255,-52 201,-52 201,-16 255,-16 255,-52"/>
<text text-anchor="middle" x="228" y="-30.3" font-family="Times,serif" font-size="14.00">cli.py</text>
</g>
<!-- orchestration.py&#45;&gt;cli.py -->
<g id="edge14" class="edge">
<title>orchestration.py&#45;&gt;cli.py</title>
<path fill="none" stroke="black" stroke-dasharray="5,2" d="M243.06,-87.7C240.92,-80.24 238.38,-71.32 235.99,-62.97"/>
<polygon fill="black" stroke="black" points="239.42,-62.21 233.3,-53.56 232.68,-64.14 239.42,-62.21"/>
</g>
<!-- server.py -->
<g id="node15" class="node">
<title>server.py</title>
<polygon fill="none" stroke="black" points="339,-52 273,-52 273,-16 339,-16 339,-52"/>
<text text-anchor="middle" x="306" y="-30.3" font-family="Times,serif" font-size="14.00">server.py</text>
</g>
<!-- orchestration.py&#45;&gt;server.py -->
<g id="edge15" class="edge">
<title>orchestration.py&#45;&gt;server.py</title>
<path fill="none" stroke="black" stroke-dasharray="5,2" d="M262.34,-87.7C269.08,-79.56 277.26,-69.69 284.7,-60.7"/>
<polygon fill="black" stroke="black" points="287.18,-63.2 290.86,-53.27 281.79,-58.74 287.18,-63.2"/>
<text text-anchor="middle" x="255.71" y="-72.34" font-family="Times,serif" font-size="8.00">aiohttp/gRPC</text>
</g>
<!-- mat.py -->
<g id="node10" class="node">
<title>mat.py</title>
<polygon fill="none" stroke="black" points="370.5,-340 315.5,-340 315.5,-304 370.5,-304 370.5,-340"/>
<text text-anchor="middle" x="343" y="-318.3" font-family="Times,serif" font-size="14.00">mat.py</text>
</g>
<!-- mat.py&#45;&gt;types.py -->
<g id="edge5" class="edge">
<title>mat.py&#45;&gt;types.py</title>
<path fill="none" stroke="black" d="M343,-303.7C343,-296.41 343,-287.73 343,-279.54"/>
<polygon fill="black" stroke="black" points="346.5,-279.62 343,-269.62 339.5,-279.62 346.5,-279.62"/>
<text text-anchor="middle" x="315" y="-288.73" font-family="Times,serif" font-size="8.00">statistical models</text>
</g>
<!-- model.py&#45;&gt;DBT -->
<g id="edge16" class="edge">
<title>model.py&#45;&gt;DBT</title>
<path fill="none" stroke="black" stroke-dasharray="5,2" d="M424.06,-160.38C442.4,-151.34 465.63,-139.75 489.67,-127.28"/>
<polygon fill="black" stroke="black" points="491.06,-130.5 498.3,-122.77 487.82,-124.3 491.06,-130.5"/>
<text text-anchor="middle" x="402.11" y="-143.99" font-family="Times,serif" font-size="8.00">source data synth based on dbt model</text>
</g>
<!-- model.py&#45;&gt;orchestration.py -->
<g id="edge10" class="edge">
<title>model.py&#45;&gt;orchestration.py</title>
<path fill="none" stroke="black" d="M355.63,-160.05C336.89,-150.82 313.48,-139.28 293.27,-129.32"/>
<polygon fill="black" stroke="black" points="294.92,-126.23 284.4,-124.94 291.82,-132.51 294.92,-126.23"/>
<text text-anchor="middle" x="311.46" y="-144.83" font-family="Times,serif" font-size="8.00">AST</text>
</g>
<!-- extensions.py -->
<g id="node12" class="node">
<title>extensions.py</title>
<polygon fill="none" stroke="black" points="293.5,-268 202.5,-268 202.5,-232 293.5,-232 293.5,-268"/>
<text text-anchor="middle" x="248" y="-246.3" font-family="Times,serif" font-size="14.00">extensions.py</text>
</g>
<!-- extensions.py&#45;&gt;io.py -->
<g id="edge8" class="edge">
<title>extensions.py&#45;&gt;io.py</title>
<path fill="none" stroke="black" d="M248,-231.7C248,-224.41 248,-215.73 248,-207.54"/>
<polygon fill="black" stroke="black" points="251.5,-207.62 248,-197.62 244.5,-207.62 251.5,-207.62"/>
<text text-anchor="middle" x="230" y="-216.73" font-family="Times,serif" font-size="8.00">basic types</text>
</g>
<!-- graph.py -->
<g id="node13" class="node">
<title>graph.py</title>
<polygon fill="none" stroke="black" points="272.5,-340 207.5,-340 207.5,-304 272.5,-304 272.5,-340"/>
<text text-anchor="middle" x="240" y="-318.3" font-family="Times,serif" font-size="14.00">graph.py</text>
</g>
<!-- graph.py&#45;&gt;types.py -->
<g id="edge12" class="edge">
<title>graph.py&#45;&gt;types.py</title>
<path fill="none" stroke="black" d="M265.73,-303.52C278.6,-294.76 294.38,-284.04 308.31,-274.58"/>
<polygon fill="black" stroke="black" points="310.05,-277.63 316.35,-269.11 306.11,-271.84 310.05,-277.63"/>
<text text-anchor="middle" x="230.42" y="-279.65" font-family="Times,serif" font-size="8.00">foreign reference and graph traversal</text>
</g>
<!-- graph.py&#45;&gt;orchestration.py -->
<g id="edge11" class="edge">
<title>graph.py&#45;&gt;orchestration.py</title>
<path fill="none" stroke="black" d="M219.18,-303.62C209.54,-294.2 199.11,-281.7 194,-268 188.4,-253.01 192.05,-247.88 194,-232 198.03,-199.26 198.53,-190.11 212,-160 216.07,-150.91 221.7,-141.69 227.3,-133.54"/>
<polygon fill="black" stroke="black" points="230.12,-135.61 233.12,-125.45 224.44,-131.52 230.12,-135.61"/>
<text text-anchor="middle" x="152.85" y="-212.12" font-family="Times,serif" font-size="8.00">required order of operation</text>
</g>
</g>
</svg>
