<?xml version="1.0" encoding="UTF-8" standalone="no"?>
<!DOCTYPE svg PUBLIC "-//W3C//DTD SVG 1.1//EN"
 "http://www.w3.org/Graphics/SVG/1.1/DTD/svg11.dtd">
<!-- Generated by graphviz version 7.1.0 (20230121.1956)
 -->
<!-- Title: genesynth Pages: 1 -->
<svg width="482pt" height="387pt"
 viewBox="0.00 0.00 481.50 387.00" xmlns="http://www.w3.org/2000/svg" xmlns:xlink="http://www.w3.org/1999/xlink">
<g id="graph0" class="graph" transform="scale(1 1) rotate(0) translate(4 383)">
<title>genesynth</title>
<polygon fill="white" stroke="none" points="-4,4 -4,-383 477.5,-383 477.5,4 -4,4"/>
<g id="clust1" class="cluster">
<title>cluster_module</title>
<polygon fill="none" stroke="black" points="174,-8 174,-371 382,-371 382,-8 174,-8"/>
<text text-anchor="middle" x="278" y="-355.8" font-family="Times,serif" font-size="14.00">genesynth</text>
</g>
<!-- ML -->
<g id="node1" class="node">
<title>ML</title>
<polygon fill="lightgray" stroke="black" points="471,-52 417,-52 417,-16 471,-16 471,-52"/>
<text text-anchor="middle" x="444" y="-30.3" font-family="Times,serif" font-size="14.00">ML</text>
</g>
<!-- types.py -->
<g id="node6" class="node">
<title>types.py</title>
<polygon fill="none" stroke="black" points="264,-268 202,-268 202,-232 264,-232 264,-268"/>
<text text-anchor="middle" x="233" y="-246.3" font-family="Times,serif" font-size="14.00">types.py</text>
</g>
<!-- ML&#45;&gt;types.py -->
<g id="edge1" class="edge">
<title>ML&#45;&gt;types.py</title>
<path fill="none" stroke="black" stroke-dasharray="5,2" d="M450.97,-52.35C457.32,-71.02 464.16,-101.1 453,-124 413.69,-204.68 363.13,-196.85 275.06,-231.3"/>
<polygon fill="black" stroke="black" points="273.79,-228.04 265.83,-235.03 276.41,-234.53 273.79,-228.04"/>
<text text-anchor="middle" x="404.9" y="-197.55" font-family="Times,serif" font-size="8.00">ML generated</text>
</g>
<!-- User Config -->
<g id="node2" class="node">
<title>User Config</title>
<polygon fill="lightgray" stroke="black" points="473.5,-340 390.5,-340 390.5,-304 473.5,-304 473.5,-340"/>
<text text-anchor="middle" x="432" y="-318.3" font-family="Times,serif" font-size="14.00">User Config</text>
</g>
<!-- constraints.py -->
<g id="node7" class="node">
<title>constraints.py</title>
<polygon fill="none" stroke="black" points="374,-268 282,-268 282,-232 374,-232 374,-268"/>
<text text-anchor="middle" x="328" y="-246.3" font-family="Times,serif" font-size="14.00">constraints.py</text>
</g>
<!-- User Config&#45;&gt;constraints.py -->
<g id="edge2" class="edge">
<title>User Config&#45;&gt;constraints.py</title>
<path fill="none" stroke="black" stroke-dasharray="5,2" d="M406.02,-303.52C393.02,-294.76 377.09,-284.04 363.03,-274.58"/>
<polygon fill="black" stroke="black" points="365.15,-271.79 354.9,-269.11 361.24,-277.59 365.15,-271.79"/>
<text text-anchor="middle" x="368.58" y="-288.65" font-family="Times,serif" font-size="8.00">YAML</text>
</g>
<!-- Data Plugin -->
<g id="node3" class="node">
<title>Data Plugin</title>
<polygon fill="lightgray" stroke="black" points="163.5,-268 82.5,-268 82.5,-232 163.5,-232 163.5,-268"/>
<text text-anchor="middle" x="123" y="-246.3" font-family="Times,serif" font-size="14.00">Data Plugin</text>
</g>
<!-- io.py -->
<g id="node8" class="node">
<title>io.py</title>
<polygon fill="none" stroke="black" points="236,-196 182,-196 182,-160 236,-160 236,-196"/>
<text text-anchor="middle" x="209" y="-174.3" font-family="Times,serif" font-size="14.00">io.py</text>
</g>
<!-- Data Plugin&#45;&gt;io.py -->
<g id="edge3" class="edge">
<title>Data Plugin&#45;&gt;io.py</title>
<path fill="none" stroke="black" stroke-dasharray="5,2" d="M144.26,-231.7C154.7,-223.2 167.46,-212.81 178.88,-203.51"/>
<polygon fill="black" stroke="black" points="180.97,-206.33 186.51,-197.3 176.55,-200.9 180.97,-206.33"/>
</g>
<!-- External Worker Scheduler -->
<g id="node4" class="node">
<title>External Worker Scheduler</title>
<polygon fill="lightgray" stroke="black" points="164,-196 0,-196 0,-160 164,-160 164,-196"/>
<text text-anchor="middle" x="82" y="-174.3" font-family="Times,serif" font-size="14.00">External Worker Scheduler</text>
</g>
<!-- orchestration.py -->
<g id="node9" class="node">
<title>orchestration.py</title>
<polygon fill="none" stroke="black" points="307,-124 203,-124 203,-88 307,-88 307,-124"/>
<text text-anchor="middle" x="255" y="-102.3" font-family="Times,serif" font-size="14.00">orchestration.py</text>
</g>
<!-- External Worker Scheduler&#45;&gt;orchestration.py -->
<g id="edge4" class="edge">
<title>External Worker Scheduler&#45;&gt;orchestration.py</title>
<path fill="none" stroke="black" stroke-dasharray="5,2" d="M125.21,-159.52C148.31,-150.17 176.97,-138.57 201.47,-128.66"/>
<polygon fill="black" stroke="black" points="202.68,-131.94 210.64,-124.95 200.06,-125.46 202.68,-131.94"/>
<text text-anchor="middle" x="151.35" y="-144.66" font-family="Times,serif" font-size="8.00">k8s/celery</text>
</g>
<!-- DBT -->
<g id="node5" class="node">
<title>DBT</title>
<polygon fill="lightgray" stroke="black" points="444,-124 390,-124 390,-88 444,-88 444,-124"/>
<text text-anchor="middle" x="417" y="-102.3" font-family="Times,serif" font-size="14.00">DBT</text>
</g>
<!-- model.py -->
<g id="node11" class="node">
<title>model.py</title>
<polygon fill="none" stroke="black" points="352,-196 284,-196 284,-160 352,-160 352,-196"/>
<text text-anchor="middle" x="318" y="-174.3" font-family="Times,serif" font-size="14.00">model.py</text>
</g>
<!-- types.py&#45;&gt;model.py -->
<g id="edge7" class="edge">
<title>types.py&#45;&gt;model.py</title>
<path fill="none" stroke="black" d="M254.01,-231.7C264.33,-223.2 276.94,-212.81 288.23,-203.51"/>
<polygon fill="black" stroke="black" points="290.27,-206.37 295.77,-197.31 285.82,-200.96 290.27,-206.37"/>
<text text-anchor="middle" x="257.72" y="-216.42" font-family="Times,serif" font-size="8.00">basic types</text>
</g>
<!-- constraints.py&#45;&gt;model.py -->
<g id="edge6" class="edge">
<title>constraints.py&#45;&gt;model.py</title>
<path fill="none" stroke="black" d="M325.53,-231.7C324.47,-224.32 323.22,-215.52 322.04,-207.25"/>
<polygon fill="black" stroke="black" points="325.54,-207.01 320.66,-197.6 318.61,-208 325.54,-207.01"/>
<text text-anchor="middle" x="379.49" y="-216.52" font-family="Times,serif" font-size="8.00">encode human readable constraints</text>
</g>
<!-- io.py&#45;&gt;orchestration.py -->
<g id="edge11" class="edge">
<title>io.py&#45;&gt;orchestration.py</title>
<path fill="none" stroke="black" d="M220.37,-159.7C225.55,-151.81 231.8,-142.3 237.56,-133.55"/>
<polygon fill="black" stroke="black" points="240.36,-135.65 242.93,-125.37 234.51,-131.8 240.36,-135.65"/>
<text text-anchor="middle" x="214.06" y="-144.5" font-family="Times,serif" font-size="8.00">io adapters</text>
</g>
<!-- orchestration.py&#45;&gt;ML -->
<g id="edge15" class="edge">
<title>orchestration.py&#45;&gt;ML</title>
<path fill="none" stroke="black" stroke-dasharray="5,2" d="M302.21,-87.52C334.34,-75.61 376.31,-60.07 406.23,-48.99"/>
<polygon fill="black" stroke="black" points="407.08,-52.41 415.25,-45.65 404.65,-45.84 407.08,-52.41"/>
<text text-anchor="middle" x="324.32" y="-68.96" font-family="Times,serif" font-size="8.00">sklearn/keras/pytorch</text>
</g>
<!-- cli.py -->
<g id="node13" class="node">
<title>cli.py</title>
<polygon fill="none" stroke="black" points="259,-52 205,-52 205,-16 259,-16 259,-52"/>
<text text-anchor="middle" x="232" y="-30.3" font-family="Times,serif" font-size="14.00">cli.py</text>
</g>
<!-- orchestration.py&#45;&gt;cli.py -->
<g id="edge12" class="edge">
<title>orchestration.py&#45;&gt;cli.py</title>
<path fill="none" stroke="black" stroke-dasharray="5,2" d="M249.31,-87.7C246.86,-80.24 243.93,-71.32 241.19,-62.97"/>
<polygon fill="black" stroke="black" points="244.54,-61.95 238.09,-53.54 237.89,-64.14 244.54,-61.95"/>
</g>
<!-- server.py -->
<g id="node14" class="node">
<title>server.py</title>
<polygon fill="none" stroke="black" points="343,-52 277,-52 277,-16 343,-16 343,-52"/>
<text text-anchor="middle" x="310" y="-30.3" font-family="Times,serif" font-size="14.00">server.py</text>
</g>
<!-- orchestration.py&#45;&gt;server.py -->
<g id="edge13" class="edge">
<title>orchestration.py&#45;&gt;server.py</title>
<path fill="none" stroke="black" stroke-dasharray="5,2" d="M268.6,-87.7C274.92,-79.64 282.58,-69.89 289.59,-60.98"/>
<polygon fill="black" stroke="black" points="292.2,-63.32 295.63,-53.29 286.7,-59 292.2,-63.32"/>
<text text-anchor="middle" x="261.05" y="-72.54" font-family="Times,serif" font-size="8.00">aiohttp/gRPC</text>
</g>
<!-- mat.py -->
<g id="node10" class="node">
<title>mat.py</title>
<polygon fill="none" stroke="black" points="320.5,-340 265.5,-340 265.5,-304 320.5,-304 320.5,-340"/>
<text text-anchor="middle" x="293" y="-318.3" font-family="Times,serif" font-size="14.00">mat.py</text>
</g>
<!-- mat.py&#45;&gt;types.py -->
<g id="edge5" class="edge">
<title>mat.py&#45;&gt;types.py</title>
<path fill="none" stroke="black" d="M278.17,-303.7C271.19,-295.56 262.73,-285.69 255.03,-276.7"/>
<polygon fill="black" stroke="black" points="257.81,-274.57 248.65,-269.25 252.5,-279.12 257.81,-274.57"/>
<text text-anchor="middle" x="234.78" y="-279.34" font-family="Times,serif" font-size="8.00">statistical models</text>
</g>
<!-- model.py&#45;&gt;DBT -->
<g id="edge14" class="edge">
<title>model.py&#45;&gt;DBT</title>
<path fill="none" stroke="black" stroke-dasharray="5,2" d="M342.73,-159.52C354.99,-150.85 369.98,-140.25 383.27,-130.85"/>
<polygon fill="black" stroke="black" points="385.21,-133.77 391.35,-125.13 381.17,-128.05 385.21,-133.77"/>
<text text-anchor="middle" x="307.51" y="-144.6" font-family="Times,serif" font-size="8.00">source data synth based on dbt model</text>
</g>
<!-- model.py&#45;&gt;orchestration.py -->
<g id="edge8" class="edge">
<title>model.py&#45;&gt;orchestration.py</title>
<path fill="none" stroke="black" d="M302.43,-159.7C295.03,-151.47 286.03,-141.48 277.88,-132.42"/>
<polygon fill="black" stroke="black" points="280.7,-130.32 271.41,-125.23 275.49,-135 280.7,-130.32"/>
<text text-anchor="middle" x="278.49" y="-135.59" font-family="Times,serif" font-size="8.00">AST</text>
</g>
<!-- graph.py -->
<g id="node12" class="node">
<title>graph.py</title>
<polygon fill="none" stroke="black" points="247.5,-340 182.5,-340 182.5,-304 247.5,-304 247.5,-340"/>
<text text-anchor="middle" x="215" y="-318.3" font-family="Times,serif" font-size="14.00">graph.py</text>
</g>
<!-- graph.py&#45;&gt;types.py -->
<g id="edge10" class="edge">
<title>graph.py&#45;&gt;types.py</title>
<path fill="none" stroke="black" d="M219.45,-303.7C221.35,-296.32 223.61,-287.52 225.74,-279.25"/>
<polygon fill="black" stroke="black" points="229.12,-280.13 228.22,-269.57 222.34,-278.38 229.12,-280.13"/>
<text text-anchor="middle" x="163.02" y="-288.52" font-family="Times,serif" font-size="8.00">foreign reference and graph traversal</text>
</g>
<!-- graph.py&#45;&gt;orchestration.py -->
<g id="edge9" class="edge">
<title>graph.py&#45;&gt;orchestration.py</title>
<path fill="none" stroke="black" d="M203.82,-303.74C193.32,-285.14 180.89,-255.12 193,-232 206.05,-207.1 230.58,-220.13 245,-196 255.79,-177.93 257.97,-154.09 257.62,-135.63"/>
<polygon fill="black" stroke="black" points="261.13,-135.73 257.17,-125.91 254.14,-136.06 261.13,-135.73"/>
<text text-anchor="middle" x="184.74" y="-212.82" font-family="Times,serif" font-size="8.00">required order of operation</text>
</g>
</g>
</svg>
