<?xml version="1.0" encoding="UTF-8" standalone="no"?>
<!DOCTYPE svg PUBLIC "-//W3C//DTD SVG 1.1//EN"
 "http://www.w3.org/Graphics/SVG/1.1/DTD/svg11.dtd">
<!-- Generated by graphviz version 7.1.0 (20230121.1956)
 -->
<!-- Title: genesynth Pages: 1 -->
<svg width="612pt" height="459pt"
 viewBox="0.00 0.00 611.63 459.00" xmlns="http://www.w3.org/2000/svg" xmlns:xlink="http://www.w3.org/1999/xlink">
<g id="graph0" class="graph" transform="scale(1 1) rotate(0) translate(4 455)">
<title>genesynth</title>
<polygon fill="white" stroke="none" points="-4,4 -4,-455 607.63,-455 607.63,4 -4,4"/>
<g id="clust1" class="cluster">
<title>cluster_module</title>
<polygon fill="none" stroke="black" points="246,-8 246,-443 480,-443 480,-8 246,-8"/>
<text text-anchor="middle" x="363" y="-427.8" font-family="Times,serif" font-size="14.00">genesynth</text>
</g>
<!-- ML -->
<g id="node1" class="node">
<title>ML</title>
<polygon fill="lightgray" stroke="black" points="585,-52 531,-52 531,-16 585,-16 585,-52"/>
<text text-anchor="middle" x="558" y="-30.3" font-family="Times,serif" font-size="14.00">ML</text>
</g>
<!-- types.py -->
<g id="node6" class="node">
<title>types.py</title>
<polygon fill="none" stroke="black" points="446,-340 384,-340 384,-304 446,-304 446,-340"/>
<text text-anchor="middle" x="415" y="-318.3" font-family="Times,serif" font-size="14.00">types.py</text>
</g>
<!-- ML&#45;&gt;types.py -->
<g id="edge1" class="edge">
<title>ML&#45;&gt;types.py</title>
<path fill="none" stroke="black" stroke-dasharray="5,2" d="M566.81,-52.26C586.69,-93.9 629.67,-201.37 581,-268 552.96,-306.38 496.81,-317.62 457.62,-320.57"/>
<polygon fill="black" stroke="black" points="457.59,-317.06 447.81,-321.14 458,-324.05 457.59,-317.06"/>
<text text-anchor="middle" x="558.49" y="-270.61" font-family="Times,serif" font-size="8.00">ML generated</text>
</g>
<!-- User Config -->
<g id="node2" class="node">
<title>User Config</title>
<polygon fill="lightgray" stroke="black" points="571.5,-412 488.5,-412 488.5,-376 571.5,-376 571.5,-412"/>
<text text-anchor="middle" x="530" y="-390.3" font-family="Times,serif" font-size="14.00">User Config</text>
</g>
<!-- constraints.py -->
<g id="node7" class="node">
<title>constraints.py</title>
<polygon fill="none" stroke="black" points="366,-340 274,-340 274,-304 366,-304 366,-340"/>
<text text-anchor="middle" x="320" y="-318.3" font-family="Times,serif" font-size="14.00">constraints.py</text>
</g>
<!-- User Config&#45;&gt;constraints.py -->
<g id="edge2" class="edge">
<title>User Config&#45;&gt;constraints.py</title>
<path fill="none" stroke="black" stroke-dasharray="5,2" d="M488.41,-377.54C486.92,-377.02 485.45,-376.5 484,-376 448.72,-363.78 408.86,-350.88 377.28,-340.87"/>
<polygon fill="black" stroke="black" points="378.51,-337.59 367.92,-337.91 376.4,-344.26 378.51,-337.59"/>
<text text-anchor="middle" x="416.04" y="-350.65" font-family="Times,serif" font-size="8.00">YAML</text>
</g>
<!-- Data Plugin -->
<g id="node3" class="node">
<title>Data Plugin</title>
<polygon fill="lightgray" stroke="black" points="571.5,-268 490.5,-268 490.5,-232 571.5,-232 571.5,-268"/>
<text text-anchor="middle" x="531" y="-246.3" font-family="Times,serif" font-size="14.00">Data Plugin</text>
</g>
<!-- io.py -->
<g id="node8" class="node">
<title>io.py</title>
<polygon fill="none" stroke="black" points="452,-196 398,-196 398,-160 452,-160 452,-196"/>
<text text-anchor="middle" x="425" y="-174.3" font-family="Times,serif" font-size="14.00">io.py</text>
</g>
<!-- Data Plugin&#45;&gt;io.py -->
<g id="edge3" class="edge">
<title>Data Plugin&#45;&gt;io.py</title>
<path fill="none" stroke="black" stroke-dasharray="5,2" d="M504.53,-231.52C491.27,-222.76 475.04,-212.04 460.7,-202.58"/>
<polygon fill="black" stroke="black" points="462.67,-199.68 452.4,-197.09 458.82,-205.53 462.67,-199.68"/>
</g>
<!-- External Worker Scheduler -->
<g id="node4" class="node">
<title>External Worker Scheduler</title>
<polygon fill="lightgray" stroke="black" points="164,-196 0,-196 0,-160 164,-160 164,-196"/>
<text text-anchor="middle" x="82" y="-174.3" font-family="Times,serif" font-size="14.00">External Worker Scheduler</text>
</g>
<!-- orchestration.py -->
<g id="node9" class="node">
<title>orchestration.py</title>
<polygon fill="none" stroke="black" points="360,-124 256,-124 256,-88 360,-88 360,-124"/>
<text text-anchor="middle" x="308" y="-102.3" font-family="Times,serif" font-size="14.00">orchestration.py</text>
</g>
<!-- External Worker Scheduler&#45;&gt;orchestration.py -->
<g id="edge4" class="edge">
<title>External Worker Scheduler&#45;&gt;orchestration.py</title>
<path fill="none" stroke="black" stroke-dasharray="5,2" d="M138.45,-159.52C170.89,-149.47 211.71,-136.82 245.17,-126.46"/>
<polygon fill="black" stroke="black" points="245.79,-129.93 254.31,-123.63 243.72,-123.25 245.79,-129.93"/>
<text text-anchor="middle" x="180.05" y="-143.97" font-family="Times,serif" font-size="8.00">k8s/celery</text>
</g>
<!-- DBT -->
<g id="node5" class="node">
<title>DBT</title>
<polygon fill="lightgray" stroke="black" points="236,-196 182,-196 182,-160 236,-160 236,-196"/>
<text text-anchor="middle" x="209" y="-174.3" font-family="Times,serif" font-size="14.00">DBT</text>
</g>
<!-- types.py&#45;&gt;io.py -->
<g id="edge7" class="edge">
<title>types.py&#45;&gt;io.py</title>
<path fill="none" stroke="black" d="M435.82,-303.62C445.46,-294.2 455.89,-281.7 461,-268 466.6,-253.01 465.7,-247.29 461,-232 458.12,-222.63 452.95,-213.42 447.42,-205.39"/>
<polygon fill="black" stroke="black" points="450.29,-203.38 441.51,-197.44 444.67,-207.56 450.29,-203.38"/>
<text text-anchor="middle" x="473.67" y="-240.76" font-family="Times,serif" font-size="8.00">basic types</text>
</g>
<!-- model.py -->
<g id="node11" class="node">
<title>model.py</title>
<polygon fill="none" stroke="black" points="342,-268 274,-268 274,-232 342,-232 342,-268"/>
<text text-anchor="middle" x="308" y="-246.3" font-family="Times,serif" font-size="14.00">model.py</text>
</g>
<!-- types.py&#45;&gt;model.py -->
<g id="edge10" class="edge">
<title>types.py&#45;&gt;model.py</title>
<path fill="none" stroke="black" d="M388.28,-303.52C374.77,-294.68 358.19,-283.84 343.62,-274.3"/>
<polygon fill="black" stroke="black" points="345.94,-271.63 335.65,-269.09 342.1,-277.49 345.94,-271.63"/>
<text text-anchor="middle" x="343.31" y="-288.48" font-family="Times,serif" font-size="8.00">basic types</text>
</g>
<!-- extensions.py -->
<g id="node12" class="node">
<title>extensions.py</title>
<polygon fill="none" stroke="black" points="451.5,-268 360.5,-268 360.5,-232 451.5,-232 451.5,-268"/>
<text text-anchor="middle" x="406" y="-246.3" font-family="Times,serif" font-size="14.00">extensions.py</text>
</g>
<!-- types.py&#45;&gt;extensions.py -->
<g id="edge8" class="edge">
<title>types.py&#45;&gt;extensions.py</title>
<path fill="none" stroke="black" d="M412.78,-303.7C411.83,-296.32 410.7,-287.52 409.63,-279.25"/>
<polygon fill="black" stroke="black" points="413.14,-279.08 408.39,-269.61 406.2,-279.97 413.14,-279.08"/>
<text text-anchor="middle" x="392.49" y="-288.52" font-family="Times,serif" font-size="8.00">basic types</text>
</g>
<!-- constraints.py&#45;&gt;model.py -->
<g id="edge6" class="edge">
<title>constraints.py&#45;&gt;model.py</title>
<path fill="none" stroke="black" d="M317.03,-303.7C315.77,-296.32 314.26,-287.52 312.84,-279.25"/>
<polygon fill="black" stroke="black" points="316.33,-278.86 311.19,-269.6 309.43,-280.04 316.33,-278.86"/>
<text text-anchor="middle" x="257.49" y="-288.52" font-family="Times,serif" font-size="8.00">encode human readable constraints</text>
</g>
<!-- io.py&#45;&gt;orchestration.py -->
<g id="edge14" class="edge">
<title>io.py&#45;&gt;orchestration.py</title>
<path fill="none" stroke="black" d="M397.57,-160.59C382.32,-151.47 363.11,-139.97 346.4,-129.97"/>
<polygon fill="black" stroke="black" points="348.57,-127.19 338.19,-125.06 344.98,-133.2 348.57,-127.19"/>
<text text-anchor="middle" x="349.16" y="-144.99" font-family="Times,serif" font-size="8.00">io adapters</text>
</g>
<!-- orchestration.py&#45;&gt;ML -->
<g id="edge18" class="edge">
<title>orchestration.py&#45;&gt;ML</title>
<path fill="none" stroke="black" stroke-dasharray="5,2" d="M360.41,-90.33C408.02,-77 477.13,-57.64 519.73,-45.72"/>
<polygon fill="black" stroke="black" points="520.6,-49.11 529.29,-43.04 518.71,-42.37 520.6,-49.11"/>
<text text-anchor="middle" x="410.29" y="-69.16" font-family="Times,serif" font-size="8.00">sklearn/keras/pytorch</text>
</g>
<!-- cli.py -->
<g id="node14" class="node">
<title>cli.py</title>
<polygon fill="none" stroke="black" points="321,-52 267,-52 267,-16 321,-16 321,-52"/>
<text text-anchor="middle" x="294" y="-30.3" font-family="Times,serif" font-size="14.00">cli.py</text>
</g>
<!-- orchestration.py&#45;&gt;cli.py -->
<g id="edge15" class="edge">
<title>orchestration.py&#45;&gt;cli.py</title>
<path fill="none" stroke="black" stroke-dasharray="5,2" d="M304.54,-87.7C303.06,-80.32 301.3,-71.52 299.65,-63.25"/>
<polygon fill="black" stroke="black" points="303.11,-62.71 297.72,-53.59 296.25,-64.08 303.11,-62.71"/>
</g>
<!-- server.py -->
<g id="node15" class="node">
<title>server.py</title>
<polygon fill="none" stroke="black" points="405,-52 339,-52 339,-16 405,-16 405,-52"/>
<text text-anchor="middle" x="372" y="-30.3" font-family="Times,serif" font-size="14.00">server.py</text>
</g>
<!-- orchestration.py&#45;&gt;server.py -->
<g id="edge16" class="edge">
<title>orchestration.py&#45;&gt;server.py</title>
<path fill="none" stroke="black" stroke-dasharray="5,2" d="M323.82,-87.7C331.34,-79.47 340.47,-69.48 348.76,-60.42"/>
<polygon fill="black" stroke="black" points="351.18,-62.96 355.34,-53.22 346.01,-58.24 351.18,-62.96"/>
<text text-anchor="middle" x="318.51" y="-72.59" font-family="Times,serif" font-size="8.00">aiohttp/gRPC</text>
</g>
<!-- mat.py -->
<g id="node10" class="node">
<title>mat.py</title>
<polygon fill="none" stroke="black" points="442.5,-412 387.5,-412 387.5,-376 442.5,-376 442.5,-412"/>
<text text-anchor="middle" x="415" y="-390.3" font-family="Times,serif" font-size="14.00">mat.py</text>
</g>
<!-- mat.py&#45;&gt;types.py -->
<g id="edge5" class="edge">
<title>mat.py&#45;&gt;types.py</title>
<path fill="none" stroke="black" d="M415,-375.7C415,-368.41 415,-359.73 415,-351.54"/>
<polygon fill="black" stroke="black" points="418.5,-351.62 415,-341.62 411.5,-351.62 418.5,-351.62"/>
<text text-anchor="middle" x="387" y="-360.73" font-family="Times,serif" font-size="8.00">statistical models</text>
</g>
<!-- model.py&#45;&gt;DBT -->
<g id="edge17" class="edge">
<title>model.py&#45;&gt;DBT</title>
<path fill="none" stroke="black" stroke-dasharray="5,2" d="M283.27,-231.52C271.01,-222.85 256.02,-212.25 242.73,-202.85"/>
<polygon fill="black" stroke="black" points="244.83,-200.05 234.65,-197.13 240.79,-205.77 244.83,-200.05"/>
<text text-anchor="middle" x="198.49" y="-216.6" font-family="Times,serif" font-size="8.00">source data synth based on dbt model</text>
</g>
<!-- model.py&#45;&gt;orchestration.py -->
<g id="edge11" class="edge">
<title>model.py&#45;&gt;orchestration.py</title>
<path fill="none" stroke="black" d="M308,-231.59C308,-207.61 308,-164.14 308,-135.42"/>
<polygon fill="black" stroke="black" points="311.5,-135.62 308,-125.62 304.5,-135.62 311.5,-135.62"/>
<text text-anchor="middle" x="300" y="-180.5" font-family="Times,serif" font-size="8.00">AST</text>
</g>
<!-- extensions.py&#45;&gt;io.py -->
<g id="edge9" class="edge">
<title>extensions.py&#45;&gt;io.py</title>
<path fill="none" stroke="black" d="M410.7,-231.7C412.72,-224.24 415.14,-215.32 417.41,-206.97"/>
<polygon fill="black" stroke="black" points="420.72,-208.13 419.96,-197.57 413.96,-206.3 420.72,-208.13"/>
<text text-anchor="middle" x="397.47" y="-216.7" font-family="Times,serif" font-size="8.00">basic types</text>
</g>
<!-- graph.py -->
<g id="node13" class="node">
<title>graph.py</title>
<polygon fill="none" stroke="black" points="344.5,-412 279.5,-412 279.5,-376 344.5,-376 344.5,-412"/>
<text text-anchor="middle" x="312" y="-390.3" font-family="Times,serif" font-size="14.00">graph.py</text>
</g>
<!-- graph.py&#45;&gt;types.py -->
<g id="edge13" class="edge">
<title>graph.py&#45;&gt;types.py</title>
<path fill="none" stroke="black" d="M337.73,-375.52C350.6,-366.76 366.38,-356.04 380.31,-346.58"/>
<polygon fill="black" stroke="black" points="382.05,-349.63 388.35,-341.11 378.11,-343.84 382.05,-349.63"/>
<text text-anchor="middle" x="302.42" y="-351.65" font-family="Times,serif" font-size="8.00">foreign reference and graph traversal</text>
</g>
<!-- graph.py&#45;&gt;orchestration.py -->
<g id="edge12" class="edge">
<title>graph.py&#45;&gt;orchestration.py</title>
<path fill="none" stroke="black" d="M290.73,-375.7C280.89,-366.31 270.24,-353.8 265,-340 238.02,-268.92 272.42,-179.02 293.62,-134.53"/>
<polygon fill="black" stroke="black" points="296.75,-136.11 298.02,-125.59 290.46,-133.02 296.75,-136.11"/>
<text text-anchor="middle" x="214.09" y="-246.97" font-family="Times,serif" font-size="8.00">required order of operation</text>
</g>
</g>
</svg>
